<?xml version="1.0" encoding="UTF-8"?>
<svg id="Layer_2" xmlns="http://www.w3.org/2000/svg" viewBox="0 0 619.8 619.8">
  <defs>
    <style>
      .cls-1 {
        fill: #324a76;
      }

      .cls-2 {
        fill: #fff;
      }
    </style>
  </defs>
  <g id="Layer_1-2" data-name="Layer_1">
    <g>
      <circle class="cls-2" cx="305.18" cy="282.8" r="235"/>
      <g>
        <path class="cls-1" d="M309.9,0C138.75,0,0,138.75,0,309.9s138.75,309.9,309.9,309.9,309.9-138.75,309.9-309.9S481.05,0,309.9,0ZM309.9,503.55c-106.95,0-193.65-86.7-193.65-193.65s86.7-193.65,193.65-193.65,193.65,86.7,193.65,193.65-86.7,193.65-193.65,193.65Z"/>
        <g>
          <path class="cls-2" d="M76.4,246.88c-3.66-9.26-7.12-18.97-12.91-20.85-2.5-.81-4.47-.2-5.26,2.25-.78,2.4.65,4.43,3.9,5.48l-2.52,7.77c-8.26-2.94-10.08-9.52-8.05-15.79,2.54-7.82,8.24-9.82,14.03-7.94,7.54,2.45,11.38,11.14,13.8,17.96l4.13-12.72,6.55,2.13-7.67,23.65-5.98-1.94Z"/>
          <path class="cls-2" d="M92.79,204.82l-7.12,15.04-6.18-2.92-13.54-23.72,4.04-8.55,19.79,9.36,1.74-3.67,6.63,3.13-1.74,3.67,5.82,2.75-3.62,7.66-5.82-2.75ZM86.42,201.15l-11.37-5.38,7.81,12.9,3.56-7.52Z"/>
          <path class="cls-2" d="M71.97,158.92l4.32-6.94,40.78,41.04-4.32,6.94-40.78-41.04Z"/>
          <path class="cls-2" d="M102.84,134.95l4.98,3.84,16,28.06-5.3,6.86-15.16-27.61-9.42,12.19-5.72-4.42,14.62-18.93Z"/>
          <path class="cls-2" d="M128.4,110.19c6.11-5.57,13.86-6.33,20.4-2.1l-6.88,6.27c-3.06-1.23-6-.56-8.38,1.61-3.84,3.5-3.88,8.76.26,13.3,4.14,4.54,9.37,4.99,13.22,1.49,2.38-2.17,3.32-5.03,2.38-8.2l6.88-6.27c3.61,6.9,2.1,14.51-4.02,20.08-7.58,6.9-17.83,6.39-24.83-1.29-7-7.69-6.6-17.97.98-24.88Z"/>
          <path class="cls-2" d="M148.06,93.94l7.04-4.71,11.57,17.28c2.29,3.42,5.3,4.26,8.63,2.03,3.33-2.23,3.78-5.39,1.49-8.81l-11.57-17.28,7.04-4.71,11.55,17.24c5.35,7.98,2.4,15.68-4.27,20.15-6.71,4.49-14.58,4.04-19.93-3.94l-11.55-17.24Z"/>
          <path class="cls-2" d="M207.32,99.13c-6.72,3.29-13.6,2.53-16.92-3.68l8.1-3.97c1.4,2.29,3.48,2.71,5.61,1.66,2.22-1.09,3.1-2.9,2.21-4.72-2.83-5.78-16.92,4.98-22.26-6.14-2.9-5.92.34-11.58,6.88-14.79,6.81-3.33,13.04-2.2,16.27,3.61l-8.23,4.03c-1.11-1.94-3.13-2.44-5.19-1.48-1.84.85-2.77,2.46-1.81,4.42,2.66,5.43,16.89-4.58,22.01,5.87,2.57,5.25.61,11.61-6.68,15.19Z"/>
          <path class="cls-2" d="M209.35,59.47l25.42-8.77,2.21,6.41-8.71,3,9.12,26.45-8,2.76-9.12-26.45-8.71,3-2.21-6.41Z"/>
          <path class="cls-2" d="M265.27,79.79c-9.68,1.87-18.95-3.86-20.93-14.12-1.98-10.26,4.51-18.98,14.19-20.85,9.73-1.88,18.85,3.83,20.83,14.09,1.98,10.26-4.4,19.01-14.08,20.88ZM263.81,72.21c5.45-1.05,8.24-5.67,7.08-11.66-1.17-6.08-5.46-9.24-10.91-8.18-5.54,1.07-8.3,5.59-7.13,11.67,1.15,5.98,5.42,9.25,10.96,8.17Z"/>
          <path class="cls-2" d="M285.38,40.83l10-.18,10.18,23.89,9.22-24.24,9.95-.18.62,34.76-8.47.15-.37-20.85-7.4,20.99-6.83.12-8.2-20.76.37,20.9-8.47.15-.62-34.76Z"/>
          <path class="cls-2" d="M354.92,50.83l-12.72-1.65-.91,6.97,11.25,1.46-.84,6.48-11.25-1.46-.98,7.56,12.72,1.65-.87,6.73-21.12-2.74,4.48-34.48,21.12,2.74-.87,6.73Z"/>
          <path class="cls-2" d="M378.17,49.16c8.25,2.12,11.16,7.93,9.66,13.78-1.08,4.22-4.41,7.61-9.98,7.82l4.35,15.33-9.26-2.38-3.74-14.51-1.97-.5-3.26,12.71-8.2-2.11,8.64-33.68,13.77,3.53ZM375.95,55.85l-5.08-1.31-2.14,8.35,5.08,1.3c3.07.79,4.92-.43,5.59-3.06.64-2.5-.38-4.5-3.45-5.28Z"/>
          <path class="cls-2" d="M406.75,96.43c-6.81-3.08-10.61-8.87-7.94-15.38l8.21,3.71c-.88,2.54.13,4.41,2.29,5.38,2.26,1.02,4.21.54,5.05-1.31,2.65-5.87-14.61-9.87-9.44-21.06,2.71-6,9.14-7.12,15.77-4.12,6.9,3.12,10,8.65,7.58,14.84l-8.35-3.77c.78-2.09-.11-3.96-2.17-4.95-1.83-.88-3.66-.57-4.55,1.42-2.49,5.5,14.29,10.1,9.5,20.71-2.41,5.32-8.56,7.87-15.96,4.52Z"/>
          <path class="cls-2" d="M440.43,73.66l7.18,4.5-11.04,17.63c-2.18,3.48-1.72,6.58,1.68,8.71,3.4,2.13,6.47,1.25,8.65-2.24l11.04-17.63,7.18,4.5-11.02,17.59c-5.1,8.14-13.33,8.6-20.13,4.34-6.84-4.29-9.65-11.65-4.55-19.8l11.02-17.59Z"/>
          <path class="cls-2" d="M469.02,120.74l-4.03-3.36-7.99,9.59-6.51-5.42,22.25-26.71,10.54,8.78c6.55,5.45,6.74,11.87,2.66,16.78-3.68,4.42-10.11,6.02-16.92.35ZM472.83,115.15c2.59,2.16,4.77,1.78,6.48-.27,1.71-2.06,1.69-4.27-.9-6.42l-3.54-2.95-5.58,6.7,3.54,2.95Z"/>
          <path class="cls-2" d="M491.7,142.43l-3.58-3.84-9.13,8.5-5.77-6.2,25.44-23.69,9.35,10.04c5.8,6.23,5.19,12.62.52,16.98-4.2,3.92-10.78,4.7-16.83-1.79ZM496.2,137.37c2.29,2.46,4.51,2.37,6.46.55,1.96-1.82,2.21-4.02-.08-6.49l-3.14-3.37-6.38,5.94,3.14,3.37Z"/>
          <path class="cls-2" d="M502.55,176.42c-5.62-8.1-4.13-18.89,4.45-24.85,8.58-5.96,19.18-3.55,24.8,4.55,5.65,8.14,4.12,18.78-4.46,24.74-8.58,5.96-19.16,3.66-24.79-4.44ZM508.9,172.02c3.16,4.56,8.52,5.24,13.52,1.76,5.08-3.53,6.24-8.73,3.07-13.29-3.22-4.64-8.47-5.33-13.55-1.8-5,3.47-6.26,8.69-3.04,13.33Z"/>
          <path class="cls-2" d="M551.94,191.33c3.79,7.63,1.28,13.63-4.13,16.31-3.91,1.94-8.64,1.63-12.44-2.46l-8.77,13.3-4.25-8.56,8.55-12.31-.9-1.82-11.76,5.83-3.76-7.59,31.15-15.45,6.31,12.74ZM545.42,194.01l-2.33-4.7-7.72,3.83,2.33,4.7c1.41,2.84,3.53,3.45,5.97,2.24,2.31-1.14,3.16-3.22,1.75-6.06Z"/>
          <path class="cls-2" d="M560.22,209.07l8.79,25.41-6.41,2.22-3.01-8.7-26.44,9.15-2.77-8,26.44-9.15-3.01-8.71,6.41-2.22Z"/>
        </g>
        <g>
          <path class="cls-2" d="M543.4,372.93c3.66,9.26,7.12,18.97,12.91,20.85,2.5.81,4.46.2,5.26-2.25.78-2.4-.65-4.43-3.9-5.48l2.52-7.77c8.26,2.94,10.08,9.52,8.05,15.79-2.54,7.82-8.24,9.82-14.03,7.94-7.54-2.45-11.38-11.14-13.8-17.96l-4.13,12.72-6.55-2.13,7.67-23.65,5.98,1.94Z"/>
          <path class="cls-2" d="M527.01,414.98l7.12-15.04,6.18,2.92,13.54,23.72-4.04,8.55-19.79-9.36-1.74,3.67-6.63-3.13,1.74-3.67-5.82-2.75,3.62-7.66,5.82,2.75ZM533.38,418.66l11.37,5.38-7.81-12.9-3.56,7.52Z"/>
          <path class="cls-2" d="M547.83,460.88l-4.32,6.94-40.78-41.04,4.32-6.94,40.78,41.04Z"/>
          <path class="cls-2" d="M516.96,484.85l-4.98-3.84-16-28.06,5.3-6.86,15.16,27.61,9.42-12.19,5.72,4.42-14.62,18.93Z"/>
          <path class="cls-2" d="M491.4,509.61c-6.11,5.57-13.86,6.33-20.4,2.1l6.88-6.27c3.06,1.23,6,.56,8.38-1.61,3.84-3.5,3.88-8.76-.26-13.3s-9.37-4.99-13.22-1.49c-2.38,2.17-3.32,5.03-2.38,8.2l-6.88,6.27c-3.61-6.9-2.09-14.51,4.02-20.08,7.58-6.9,17.83-6.39,24.83,1.29,7,7.69,6.6,17.97-.98,24.88Z"/>
          <path class="cls-2" d="M471.74,525.86l-7.04,4.71-11.57-17.28c-2.29-3.42-5.3-4.26-8.63-2.03-3.33,2.23-3.78,5.39-1.49,8.81l11.57,17.28-7.04,4.71-11.55-17.24c-5.35-7.98-2.39-15.68,4.27-20.15,6.71-4.49,14.58-4.04,19.93,3.94l11.55,17.24Z"/>
          <path class="cls-2" d="M412.48,520.67c6.72-3.29,13.6-2.53,16.92,3.68l-8.09,3.97c-1.4-2.29-3.48-2.71-5.61-1.66-2.22,1.09-3.1,2.9-2.21,4.72,2.83,5.78,16.92-4.98,22.26,6.14,2.9,5.92-.34,11.58-6.88,14.79-6.8,3.33-13.04,2.2-16.27-3.61l8.23-4.03c1.11,1.94,3.13,2.44,5.19,1.48,1.85-.85,2.77-2.46,1.81-4.42-2.66-5.43-16.89,4.58-22.01-5.87-2.57-5.25-.61-11.61,6.68-15.19Z"/>
          <path class="cls-2" d="M410.45,560.33l-25.42,8.77-2.21-6.41,8.71-3-9.12-26.45,8-2.76,9.12,26.45,8.71-3,2.21,6.41Z"/>
          <path class="cls-2" d="M354.53,540.01c9.68-1.87,18.95,3.86,20.93,14.12,1.98,10.26-4.51,18.98-14.19,20.85-9.73,1.88-18.85-3.83-20.83-14.09-1.98-10.26,4.4-19.01,14.08-20.88ZM355.99,547.6c-5.45,1.05-8.24,5.67-7.08,11.66,1.17,6.08,5.46,9.24,10.91,8.18,5.54-1.07,8.3-5.59,7.13-11.67-1.15-5.98-5.42-9.25-10.96-8.17Z"/>
          <path class="cls-2" d="M334.42,578.98l-10,.18-10.18-23.89-9.23,24.24-9.95.18-.62-34.76,8.47-.15.37,20.85,7.4-20.99,6.83-.12,8.2,20.76-.37-20.9,8.47-.15.62,34.76Z"/>
          <path class="cls-2" d="M264.88,568.97l12.72,1.65.91-6.97-11.25-1.46.84-6.48,11.25,1.46.98-7.56-12.72-1.65.87-6.73,21.12,2.74-4.48,34.48-21.12-2.74.87-6.73Z"/>
          <path class="cls-2" d="M241.63,570.64c-8.25-2.12-11.16-7.93-9.66-13.78,1.08-4.22,4.41-7.61,9.98-7.82l-4.35-15.33,9.26,2.38,3.74,14.51,1.97.5,3.26-12.71,8.2,2.11-8.64,33.68-13.77-3.53ZM243.86,563.95l5.08,1.31,2.14-8.35-5.08-1.3c-3.07-.79-4.92.43-5.59,3.06-.64,2.5.38,4.5,3.45,5.28Z"/>
          <path class="cls-2" d="M213.05,523.37c6.81,3.08,10.61,8.87,7.94,15.38l-8.21-3.71c.88-2.54-.13-4.41-2.29-5.38-2.26-1.02-4.21-.54-5.05,1.31-2.65,5.87,14.61,9.87,9.44,21.06-2.71,6-9.14,7.12-15.77,4.12-6.9-3.12-10-8.65-7.58-14.84l8.35,3.77c-.78,2.09.11,3.96,2.17,4.95,1.83.88,3.66.57,4.55-1.42,2.49-5.5-14.29-10.1-9.5-20.71,2.41-5.32,8.56-7.87,15.96-4.52Z"/>
          <path class="cls-2" d="M179.37,546.15l-7.18-4.5,11.04-17.63c2.18-3.48,1.72-6.58-1.68-8.71s-6.47-1.25-8.65,2.24l-11.04,17.63-7.18-4.5,11.02-17.59c5.1-8.14,13.33-8.6,20.13-4.34,6.84,4.29,9.65,11.65,4.55,19.8l-11.02,17.59Z"/>
          <path class="cls-2" d="M150.78,499.07l4.03,3.36,7.99-9.59,6.51,5.42-22.25,26.71-10.54-8.78c-6.54-5.45-6.74-11.87-2.66-16.78,3.68-4.42,10.11-6.02,16.92-.35ZM146.97,504.65c-2.59-2.16-4.77-1.78-6.48.27-1.71,2.06-1.69,4.27.9,6.42l3.54,2.95,5.58-6.7-3.54-2.95Z"/>
          <path class="cls-2" d="M128.1,477.37l3.58,3.84,9.13-8.5,5.77,6.2-25.44,23.69-9.35-10.04c-5.81-6.23-5.19-12.62-.52-16.98,4.2-3.92,10.78-4.7,16.83,1.79ZM123.61,482.43c-2.29-2.46-4.51-2.37-6.46-.55-1.96,1.82-2.21,4.02.08,6.49l3.14,3.37,6.38-5.94-3.14-3.37Z"/>
          <path class="cls-2" d="M117.25,443.38c5.62,8.1,4.13,18.89-4.45,24.85-8.58,5.96-19.18,3.55-24.8-4.55-5.65-8.14-4.12-18.78,4.46-24.74,8.58-5.96,19.16-3.66,24.78,4.44ZM110.91,447.78c-3.16-4.56-8.52-5.24-13.52-1.76-5.08,3.53-6.24,8.73-3.07,13.29,3.22,4.64,8.47,5.33,13.55,1.8,5-3.47,6.27-8.69,3.05-13.33Z"/>
          <path class="cls-2" d="M67.86,428.47c-3.78-7.63-1.28-13.63,4.13-16.31,3.9-1.94,8.64-1.63,12.44,2.46l8.77-13.3,4.25,8.56-8.55,12.31.9,1.82,11.76-5.83,3.76,7.59-31.15,15.45-6.32-12.74ZM74.38,425.79l2.33,4.7,7.72-3.83-2.33-4.7c-1.41-2.84-3.53-3.45-5.97-2.24-2.31,1.14-3.16,3.22-1.75,6.06Z"/>
          <path class="cls-2" d="M59.59,410.74l-8.79-25.41,6.41-2.22,3.01,8.7,26.44-9.15,2.77,8-26.44,9.15,3.01,8.71-6.41,2.22Z"/>
        </g>
        <g>
          <path class="cls-1" d="M183.84,331.33c15-11.28,30.85-24.36,30.85-35.53,0-3.4-1.6-5.32-4.04-5.32s-4.68,2.55-4.25,8.83h-22.87c.74-20.63,14.15-28.61,28.72-28.61,19.36,0,26.27,10.96,26.27,23.29,0,15.42-11.7,28.29-24.04,36.06h24.36v19.04h-54.99v-17.76Z"/>
          <path class="cls-1" d="M279.89,338.46h-33.29v-19.68l31.7-45.21h25.42v44.46h7.66v20.42h-7.66v11.7h-23.83v-11.7ZM281.81,318.04v-17.55l-11.49,17.55h11.49Z"/>
          <path class="cls-1" d="M340.42,248.58h22.55l-28.19,122.64h-22.66l28.29-122.64Z"/>
          <path class="cls-1" d="M411.79,272.4v17.34l-24.25,60.42h-24.25l24.46-57.55h-27.44v-20.21h51.48Z"/>
        </g>
        <path class="cls-2" d="M563.48,271.94c-23.29,0-42.16,16.6-42.16,37.08,0,9.2,3.82,17.62,10.14,24.1l-3.15,13.55c-.16.7.39,1.34,1,1.15l16.57-5.11c5.35,2.16,11.31,3.38,17.59,3.38,23.28,0,42.16-16.6,42.16-37.08s-18.88-37.08-42.16-37.08ZM551.87,297.31h23.22c1.93,0,1.93,3,0,3h-23.22c-1.93,0-1.93-3,0-3ZM575.09,322.48h-23.22c-1.93,0-1.93-3,0-3h23.22c1.93,0,1.93,3,0,3ZM579.95,311.4h-32.93c-1.93,0-1.93-3,0-3h32.93c1.93,0,1.93,3,0,3Z"/>
        <path class="cls-2" d="M57.51,271.94c-23.29,0-42.16,16.6-42.16,37.08,0,9.2,3.82,17.62,10.14,24.1l-3.15,13.55c-.16.7.39,1.34,1,1.15l16.57-5.11c5.35,2.16,11.31,3.38,17.59,3.38,23.28,0,42.16-16.6,42.16-37.08s-18.88-37.08-42.16-37.08ZM45.89,297.31h23.22c1.93,0,1.93,3,0,3h-23.22c-1.93,0-1.93-3,0-3ZM69.12,322.48h-23.22c-1.93,0-1.93-3,0-3h23.22c1.93,0,1.93,3,0,3ZM73.97,311.4h-32.93c-1.93,0-1.93-3,0-3h32.93c1.93,0,1.93,3,0,3Z"/>
      </g>
    </g>
  </g>
</svg>