<?xml version="1.0" encoding="UTF-8"?>
<svg id="Layer_2" xmlns="http://www.w3.org/2000/svg" viewBox="0 0 619.8 619.8">
  <defs>
    <style>
      .cls-1 {
        fill: #324a76;
      }

      .cls-2 {
        fill: #fff;
      }
    </style>
  </defs>
  <g id="Layer_1-2" data-name="Layer_1">
    <g>
      <circle class="cls-2" cx="303.58" cy="308.08" r="235"/>
      <g>
        <path class="cls-1" d="M309.9,0C138.75,0,0,138.75,0,309.9s138.75,309.9,309.9,309.9,309.9-138.75,309.9-309.9S481.05,0,309.9,0ZM309.9,503.55c-106.95,0-193.65-86.7-193.65-193.65s86.7-193.65,193.65-193.65,193.65,86.7,193.65,193.65-86.7,193.65-193.65,193.65Z"/>
        <g>
          <path class="cls-2" d="M57.75,234.96l-1.45,4.68-7.52-2.33,4.06-13.1,34.53,10.69-2.61,8.42-27.01-8.36Z"/>
          <path class="cls-2" d="M60.25,202.79c4.07-9.46,12.59-9.74,22.33-5.55,9.83,4.22,15.5,10.59,11.43,20.06-4.07,9.46-12.59,9.74-22.42,5.51-9.74-4.18-15.41-10.55-11.34-20.02ZM67.54,205.92c-1.97,4.6,2.25,7.06,7.35,9.25,5.28,2.27,9.88,3.6,11.86-1,1.97-4.6-2.16-7.02-7.44-9.29-5.1-2.19-9.79-3.56-11.76,1.04Z"/>
          <path class="cls-2" d="M76.67,170.67c5.29-8.84,13.77-7.98,22.87-2.54,9.18,5.49,13.95,12.56,8.67,21.4s-13.77,7.98-22.95,2.48c-9.09-5.44-13.87-12.51-8.58-21.35ZM83.47,174.73c-2.57,4.29,1.29,7.29,6.05,10.14,4.93,2.95,9.31,4.88,11.88.59,2.57-4.29-1.21-7.24-6.14-10.19-4.76-2.85-9.23-4.83-11.8-.54Z"/>
          <path class="cls-2" d="M94.61,146.34c3.01-3.62,7.46-4.49,11.69-.97,4.23,3.51,4.19,8.05,1.18,11.67s-7.5,4.52-11.72,1.01c-4.23-3.51-4.16-8.09-1.15-11.71ZM99.49,153.55c1.79,1.49,3.16,1.47,4.11.32.95-1.14.75-2.53-1.04-4.02-1.83-1.52-3.23-1.46-4.18-.32-.95,1.14-.72,2.49,1.11,4.01ZM106.01,133.47l5.22-6.28,14.62,36.95-5.22,6.28-14.62-36.95ZM124.42,140.53c3.01-3.62,7.43-4.52,11.69-.97,4.23,3.51,4.19,8.06,1.18,11.67s-7.46,4.49-11.69.97c-4.27-3.55-4.19-8.05-1.18-11.67ZM129.31,147.75c1.79,1.49,3.16,1.47,4.11.33s.75-2.53-1.04-4.02c-1.79-1.49-3.23-1.46-4.18-.32s-.68,2.53,1.11,4.01Z"/>
          <path class="cls-2" d="M162.28,127.88c-5.8,4.72-12.67,5.54-17.31.24l6.99-5.69c1.88,1.92,4,1.85,5.84.35,1.92-1.56,2.37-3.53,1.08-5.1-4.07-4.99-15.35,8.68-23.06-.95-4.16-5.11-2.29-11.36,3.35-15.96,5.87-4.79,12.21-5.09,16.67-.16l-7.1,5.79c-1.52-1.63-3.6-1.67-5.39-.27-1.61,1.24-2.14,3.02-.76,4.71,3.82,4.68,15.42-8.28,22.77.74,3.69,4.53,3.22,11.17-3.07,16.3Z"/>
          <path class="cls-2" d="M156.89,87.6l7.22-4.43,10.87,17.73c2.15,3.5,5.12,4.47,8.54,2.37,3.42-2.1,3.99-5.24,1.85-8.74l-10.87-17.73,7.22-4.42,10.84,17.69c5.02,8.19,1.76,15.76-5.08,19.96-6.88,4.22-14.73,3.45-19.75-4.74l-10.84-17.69Z"/>
          <path class="cls-2" d="M211.77,82.96l-4.81,2.11,5.02,11.42-7.75,3.41-13.99-31.82,12.56-5.52c7.8-3.43,13.63-.74,16.2,5.1,2.31,5.26.88,11.73-7.23,15.3ZM208.47,77.06c3.08-1.36,3.72-3.47,2.64-5.92-1.08-2.45-3.07-3.41-6.15-2.06l-4.22,1.85,3.51,7.98,4.22-1.85Z"/>
          <path class="cls-2" d="M241.33,72.36l-5.04,1.48,3.52,11.97-8.13,2.39-9.81-33.36,13.16-3.87c8.17-2.4,13.61,1,15.42,7.13,1.62,5.51-.62,11.75-9.13,14.25ZM238.81,66.08c3.23-.95,4.13-2.97,3.38-5.54-.75-2.57-2.61-3.78-5.84-2.83l-4.42,1.3,2.46,8.36,4.42-1.3Z"/>
          <path class="cls-2" d="M276.58,77.9c-9.76,1.39-18.74-4.78-20.21-15.13s5.43-18.73,15.19-20.12c9.8-1.4,18.63,4.75,20.11,15.09,1.47,10.34-5.33,18.77-15.08,20.16ZM275.49,70.25c5.49-.78,8.5-5.26,7.64-11.29-.87-6.13-5-9.49-10.5-8.71-5.59.8-8.57,5.17-7.69,11.3.86,6.03,4.96,9.5,10.54,8.7Z"/>
          <path class="cls-2" d="M312.37,40.46c8.52.14,12.7,5.11,12.6,11.15-.07,4.36-2.51,8.43-7.89,9.93l7.8,13.9-9.56-.16-7.01-13.24-2.03-.03-.21,13.12-8.47-.14.57-34.76,14.21.23ZM311.76,47.49l-5.25-.09-.14,8.62,5.25.08c3.17.05,4.68-1.56,4.72-4.28.04-2.57-1.42-4.28-4.58-4.33Z"/>
          <path class="cls-2" d="M331.53,40.95l26.67,3.46-.87,6.73-9.14-1.19-3.6,27.75-8.4-1.09,3.6-27.75-9.14-1.19.87-6.73Z"/>
          <path class="cls-2" d="M377.07,48.47l8.08,2.54-6.25,19.84c-1.24,3.92-.01,6.8,3.81,8,3.83,1.21,6.57-.42,7.81-4.34l6.25-19.84,8.08,2.54-6.23,19.79c-2.89,9.16-10.74,11.68-18.39,9.27-7.7-2.42-12.27-8.85-9.39-18.01l6.23-19.79Z"/>
          <path class="cls-2" d="M442.05,74.5l-15.26,31.24-7.61-3.72-3.31-25.49-9.42,19.27-7.61-3.72,15.26-31.23,7.61,3.72,3.27,25.57,9.46-19.36,7.61,3.72Z"/>
          <path class="cls-2" d="M448.82,78.57l22.32,15-3.78,5.63-7.65-5.14-15.61,23.23-7.03-4.72,15.61-23.23-7.65-5.14,3.78-5.63Z"/>
          <path class="cls-2" d="M476.23,97.84l6.58,5.33-21.89,27-6.58-5.33,21.9-27Z"/>
          <path class="cls-2" d="M495.24,114.3l-19.44,20.47,8.04,7.64-4.5,4.74-14.18-13.47,23.94-25.2,6.14,5.83Z"/>
          <path class="cls-2" d="M514.34,133.61l5.83,7.64-7.49,14.19,15.63-3.52,5.77,7.56-25.8,4.55-9.13,6.97-5.14-6.73,9.13-6.97,11.2-23.69Z"/>
          <path class="cls-2" d="M515.32,196.99c-4.76-8.63-2.17-19.22,6.98-24.26,9.15-5.04,19.44-1.56,24.2,7.07,4.78,8.67,2.17,19.11-6.98,24.15-9.15,5.04-19.44,1.67-24.2-6.96ZM522.08,193.26c2.68,4.86,7.94,6.09,13.27,3.14,5.42-2.99,7.1-8.04,4.42-12.9-2.73-4.94-7.87-6.18-13.29-3.19-5.33,2.94-7.12,8-4.4,12.94Z"/>
          <path class="cls-2" d="M557.98,203.56l2.91,7.95-19.53,7.15c-3.86,1.41-5.39,4.14-4.01,7.9,1.38,3.77,4.34,4.95,8.2,3.54l19.53-7.15,2.91,7.95-19.48,7.13c-9.02,3.3-15.8-1.38-18.56-8.92-2.78-7.58-.47-15.12,8.54-18.42l19.48-7.13Z"/>
        </g>
        <g>
          <path class="cls-2" d="M562.05,384.85l1.45-4.68,7.52,2.33-4.06,13.1-34.53-10.69,2.61-8.42,27.01,8.36Z"/>
          <path class="cls-2" d="M559.55,417.01c-4.07,9.46-12.59,9.74-22.33,5.55-9.83-4.22-15.5-10.59-11.43-20.06,4.07-9.46,12.59-9.74,22.42-5.51,9.74,4.18,15.41,10.55,11.34,20.02ZM552.27,413.88c1.97-4.6-2.25-7.06-7.35-9.25-5.28-2.27-9.88-3.6-11.86,1-1.97,4.6,2.16,7.02,7.44,9.29,5.1,2.19,9.79,3.56,11.76-1.04Z"/>
          <path class="cls-2" d="M543.13,449.14c-5.29,8.84-13.77,7.98-22.87,2.54-9.18-5.49-13.95-12.56-8.67-21.4,5.29-8.84,13.77-7.98,22.95-2.48,9.09,5.44,13.87,12.51,8.58,21.35ZM536.33,445.07c2.57-4.29-1.29-7.29-6.05-10.14-4.93-2.95-9.31-4.88-11.88-.59s1.21,7.24,6.14,10.19c4.76,2.85,9.23,4.83,11.8.54Z"/>
          <path class="cls-2" d="M495.37,479.27c-3.01,3.62-7.43,4.52-11.69.97-4.23-3.51-4.19-8.06-1.18-11.67s7.46-4.49,11.69-.97c4.27,3.55,4.19,8.05,1.18,11.67ZM490.49,472.06c-1.79-1.49-3.16-1.47-4.11-.33s-.75,2.53,1.04,4.02c1.79,1.49,3.23,1.46,4.18.32s.68-2.53-1.11-4.01ZM513.79,486.33l-5.22,6.28-14.62-36.95,5.22-6.28,14.62,36.95ZM525.19,473.47c-3.01,3.62-7.46,4.49-11.69.97-4.23-3.51-4.19-8.05-1.18-11.67s7.5-4.52,11.72-1.01c4.23,3.51,4.16,8.09,1.15,11.71ZM520.31,466.25c-1.79-1.49-3.16-1.47-4.11-.32-.95,1.14-.75,2.53,1.04,4.02,1.83,1.52,3.23,1.46,4.18.32.95-1.14.72-2.49-1.11-4.01Z"/>
          <path class="cls-2" d="M457.52,491.92c5.8-4.72,12.67-5.54,17.31-.24l-6.99,5.69c-1.88-1.92-4-1.85-5.84-.35-1.92,1.56-2.37,3.53-1.08,5.1,4.07,4.99,15.35-8.68,23.06.95,4.16,5.11,2.29,11.36-3.35,15.96-5.87,4.79-12.21,5.09-16.67.16l7.1-5.79c1.52,1.63,3.6,1.67,5.39.27,1.61-1.24,2.14-3.02.76-4.71-3.82-4.68-15.42,8.28-22.77-.74-3.69-4.53-3.22-11.17,3.07-16.3Z"/>
          <path class="cls-2" d="M462.92,532.21l-7.22,4.43-10.87-17.73c-2.15-3.5-5.12-4.47-8.54-2.37-3.42,2.1-3.99,5.24-1.84,8.74l10.87,17.73-7.22,4.42-10.84-17.69c-5.02-8.19-1.76-15.76,5.08-19.96,6.88-4.22,14.73-3.45,19.75,4.74l10.84,17.69Z"/>
          <path class="cls-2" d="M408.03,536.84l4.8-2.11-5.02-11.42,7.75-3.41,13.99,31.82-12.56,5.52c-7.8,3.43-13.63.74-16.2-5.1-2.31-5.26-.88-11.73,7.23-15.3ZM411.33,542.75c-3.08,1.36-3.72,3.47-2.64,5.92,1.08,2.45,3.07,3.41,6.15,2.06l4.22-1.85-3.51-7.98-4.22,1.85Z"/>
          <path class="cls-2" d="M378.47,547.45l5.04-1.48-3.52-11.97,8.12-2.39,9.81,33.36-13.16,3.87c-8.17,2.4-13.62-1-15.42-7.13-1.62-5.51.62-11.75,9.13-14.25ZM380.99,553.73c-3.23.95-4.13,2.97-3.38,5.54.75,2.57,2.61,3.78,5.84,2.83l4.42-1.3-2.46-8.36-4.42,1.3Z"/>
          <path class="cls-2" d="M343.22,541.9c9.76-1.39,18.74,4.78,20.21,15.13s-5.43,18.73-15.19,20.12c-9.8,1.4-18.63-4.75-20.11-15.09-1.47-10.34,5.33-18.77,15.08-20.16ZM344.31,549.55c-5.49.78-8.5,5.26-7.64,11.29.87,6.13,5,9.49,10.5,8.71,5.59-.8,8.57-5.17,7.69-11.3-.86-6.03-4.96-9.5-10.54-8.7Z"/>
          <path class="cls-2" d="M307.44,579.34c-8.52-.14-12.7-5.11-12.6-11.15.07-4.36,2.51-8.43,7.89-9.93l-7.8-13.9,9.56.16,7.01,13.24,2.03.03.21-13.12,8.47.14-.57,34.76-14.21-.23ZM308.04,572.32l5.25.09.14-8.62-5.25-.08c-3.17-.05-4.68,1.56-4.72,4.28-.04,2.57,1.42,4.28,4.58,4.33Z"/>
          <path class="cls-2" d="M288.27,578.85l-26.67-3.46.87-6.73,9.14,1.19,3.6-27.75,8.4,1.09-3.6,27.75,9.14,1.19-.87,6.73Z"/>
          <path class="cls-2" d="M242.73,571.33l-8.08-2.54,6.25-19.84c1.23-3.92.01-6.8-3.81-8s-6.57.42-7.81,4.34l-6.25,19.84-8.08-2.54,6.23-19.79c2.89-9.16,10.74-11.68,18.39-9.27,7.7,2.42,12.27,8.85,9.39,18.01l-6.23,19.79Z"/>
          <path class="cls-2" d="M177.75,545.3l15.26-31.24,7.61,3.72,3.31,25.49,9.42-19.27,7.61,3.72-15.26,31.23-7.61-3.72-3.27-25.57-9.46,19.36-7.61-3.72Z"/>
          <path class="cls-2" d="M170.98,541.23l-22.32-15,3.78-5.63,7.65,5.14,15.6-23.23,7.03,4.72-15.6,23.23,7.65,5.14-3.78,5.63Z"/>
          <path class="cls-2" d="M143.57,521.96l-6.58-5.33,21.89-27,6.58,5.33-21.9,27Z"/>
          <path class="cls-2" d="M124.56,505.5l19.44-20.47-8.04-7.64,4.5-4.74,14.18,13.47-23.94,25.2-6.14-5.83Z"/>
          <path class="cls-2" d="M105.46,486.19l-5.83-7.64,7.49-14.19-15.63,3.52-5.77-7.56,25.8-4.55,9.13-6.97,5.14,6.73-9.13,6.97-11.2,23.69Z"/>
          <path class="cls-2" d="M104.49,422.81c4.76,8.63,2.17,19.22-6.98,24.26-9.15,5.04-19.44,1.56-24.2-7.07-4.78-8.67-2.17-19.11,6.98-24.15,9.15-5.04,19.44-1.67,24.2,6.96ZM97.72,426.54c-2.68-4.86-7.94-6.09-13.27-3.14-5.42,2.99-7.1,8.04-4.42,12.9,2.73,4.94,7.87,6.18,13.29,3.19,5.33-2.94,7.12-8,4.4-12.94Z"/>
          <path class="cls-2" d="M61.82,416.24l-2.91-7.95,19.53-7.15c3.86-1.41,5.39-4.14,4.01-7.9-1.38-3.77-4.34-4.95-8.2-3.54l-19.53,7.15-2.91-7.95,19.48-7.13c9.02-3.3,15.8,1.38,18.56,8.92,2.78,7.58.48,15.12-8.54,18.42l-19.48,7.13Z"/>
        </g>
        <g>
          <path class="cls-1" d="M171.6,280.24h-4.84v12.37h-12.21v-38.93h17.05c9.79,0,14.79,5.5,14.79,13.36,0,7.2-5,13.2-14.79,13.2ZM170.23,270.62c2.75,0,3.79-1.43,3.79-3.57s-1.04-3.58-3.79-3.58h-3.46v7.15h3.46Z"/>
          <path class="cls-1" d="M215.21,286.73h-12.98l-1.92,5.88h-12.81l14.24-38.93h14.08l14.19,38.93h-12.87l-1.92-5.88ZM208.72,266.71l-3.52,10.83h7.04l-3.52-10.83Z"/>
          <path class="cls-1" d="M247.99,293c-8.91,0-15.89-4.12-16.44-12.87h12.98c.22,2.86,1.76,3.35,2.97,3.35s2.36-.55,2.36-1.92c-.06-5.28-18.42-3.35-18.2-16.66,0-7.81,6.6-11.88,14.9-11.88,9.4,0,15.45,4.51,15.78,12.59h-13.14c-.11-2.37-1.38-3.08-2.69-3.08-.99,0-1.76.66-1.76,1.98,0,4.89,18.09,4.07,18.09,16.06,0,7.15-5.44,12.43-14.85,12.43Z"/>
          <path class="cls-1" d="M282.37,293c-8.91,0-15.89-4.12-16.44-12.87h12.98c.22,2.86,1.76,3.35,2.97,3.35s2.36-.55,2.36-1.92c-.06-5.28-18.42-3.35-18.2-16.66,0-7.81,6.6-11.88,14.9-11.88,9.4,0,15.45,4.51,15.78,12.59h-13.14c-.11-2.37-1.38-3.08-2.69-3.08-.99,0-1.76.66-1.76,1.98,0,4.89,18.09,4.07,18.09,16.06,0,7.15-5.44,12.43-14.85,12.43Z"/>
          <path class="cls-1" d="M308.11,253.68h13.97l6.21,13.8,6.21-13.8h13.75l-13.97,27.11v11.82h-12.21v-11.82l-13.97-27.11Z"/>
          <path class="cls-1" d="M369.98,293c-11.05,0-20.07-8.3-20.07-20.02s9.02-19.96,20.07-19.96,19.96,8.25,19.96,19.96-8.96,20.02-19.96,20.02ZM369.98,281.62c4.89,0,7.59-3.46,7.59-8.63s-2.69-8.69-7.59-8.69-7.64,3.41-7.64,8.69,2.64,8.63,7.64,8.63Z"/>
          <path class="cls-1" d="M394.13,253.68h12.15v21.94c0,3.36,1.32,5.83,5,5.83s5.17-2.47,5.17-5.83v-21.94h12.15v21.94c0,11.49-7.86,17.38-17.6,17.38s-16.88-5.88-16.88-17.38v-21.94Z"/>
          <path class="cls-1" d="M452.04,253.68c9.79,0,14.79,5.61,14.79,12.76,0,5.11-2.86,9.46-8.41,11.27l8.47,14.9h-13.42l-7.31-13.97h-.05v13.97h-12.21v-38.93h18.15ZM450.94,263.91h-4.84v6.6h4.84c2.31,0,3.52-.99,3.52-3.3,0-1.98-1.21-3.3-3.52-3.3Z"/>
          <path class="cls-1" d="M203.53,325.19h-26.59v9.25h23.4v17.76h-23.4v10.64h26.59v18.83h-50.21v-75.31h50.21v18.83Z"/>
          <path class="cls-1" d="M246.61,362.1l-11.49,19.57h-26.91l24.78-38.82-25.85-36.49h27.98l13.3,18.83,11.06-18.83h26.91l-24.36,38.08,26.38,37.23h-27.97l-13.83-19.57Z"/>
          <path class="cls-1" d="M342.02,370.29h-25.1l-3.72,11.38h-24.78l27.55-75.31h27.23l27.44,75.31h-24.89l-3.72-11.38ZM329.47,331.57l-6.81,20.95h13.62l-6.81-20.95Z"/>
          <path class="cls-1" d="M375.95,306.36h28.93l16.59,45.21,16.17-45.21h28.83v75.31h-23.51v-37.55l-11.59,37.55h-20.21l-11.59-37.55v37.55h-23.61v-75.31Z"/>
        </g>
        <g id="_x35_dIwdi">
          <g>
            <path class="cls-2" d="M525.33,322.99c.5-4.61-.45-7.85-2.58-10.72-2.48-3.36-2.39-6.56.16-9.84,2.21-2.85,2.98-6.17,2.52-9.73-.5-3.77.91-6.42,4.42-7.9,3.64-1.53,6.14-4.16,7.69-7.75,1.43-3.31,3.98-4.76,7.52-4.36,3.9.45,7.45-.44,10.6-2.74,3.12-2.28,6.07-1.99,9.07.22,3.03,2.22,6.48,2.96,10.19,2.52,3.55-.42,6.11.89,7.57,4.23,1.62,3.72,4.19,6.51,8.03,8.02,3.24,1.27,4.55,3.78,4.27,7.1-.36,4.19.35,8.01,3.01,11.4,2.12,2.71,2.05,5.52-.07,8.23-2.44,3.11-3.29,6.63-2.93,10.52.34,3.66-.88,6.36-4.51,7.86-3.59,1.49-6.16,4.15-7.67,7.78-1.4,3.35-3.96,4.78-7.5,4.33-3.75-.47-7.16.35-10.16,2.59-3.17,2.37-6.3,2.49-9.49.15-3.03-2.22-6.41-3.27-10.13-2.77-3.84.52-6.44-1.05-7.91-4.43-1.52-3.48-3.95-5.99-7.37-7.48-3.71-1.61-5.16-4.33-4.71-7.23ZM587.68,307.46c.15-14.89-12.25-27.51-27.22-27.72-14.98-.2-28.02,12.23-28.15,26.83-.13,15.72,11.89,28.33,27.27,28.6,15.38.27,27.94-12.12,28.09-27.71Z"/>
            <path class="cls-2" d="M596.43,352.09c-2.92.85-5.21-.2-7.41-.82-2.9-.8-4.11.16-4.79,2.84-.57,2.24-1.46,4.4-2.53,7.54-2.91-5.03-5.36-9.22-7.77-13.44-.61-1.06-.62-2.42.92-2.13,6.8,1.3,10.59-2.26,13.06-8.89,3.15,5.51,5.79,10.12,8.52,14.89Z"/>
            <path class="cls-2" d="M538.74,360.72c-1.68-1.27-1.73-2.7-2.15-3.9-2.17-6.22-2.14-6.23-8.58-4.86-1.29.27-2.56.78-4.23.22,1.88-4.58,4.52-8.67,7.06-12.81,1.39-2.26,2.4-.45,2.75.63,1.7,5.17,5.25,6.83,10.4,6.09,1.23-.18,3.23-.15,2.06,2.02-2.27,4.25-4.82,8.35-7.31,12.62Z"/>
            <path class="cls-2" d="M583.19,307.88c-.09,12.45-10.64,22.81-23.09,22.68-13.28-.14-23.26-10.3-23.09-23.51.16-12.58,10.49-22.78,23.02-22.75,12.94.03,23.25,10.53,23.16,23.58Z"/>
          </g>
        </g>
        <g id="_x35_dIwdi-2" data-name="_x35_dIwdi">
          <g>
            <path class="cls-2" d="M24.49,322.99c.5-4.61-.45-7.85-2.58-10.72-2.48-3.36-2.39-6.56.16-9.84,2.21-2.85,2.98-6.17,2.52-9.73-.5-3.77.91-6.42,4.42-7.9,3.64-1.53,6.14-4.16,7.69-7.75,1.43-3.31,3.98-4.76,7.52-4.36,3.9.45,7.45-.44,10.6-2.74,3.12-2.28,6.07-1.99,9.07.22,3.03,2.22,6.48,2.96,10.19,2.52,3.55-.42,6.11.89,7.57,4.23,1.62,3.72,4.19,6.51,8.03,8.02,3.24,1.27,4.55,3.78,4.27,7.1-.36,4.19.35,8.01,3.01,11.4,2.12,2.71,2.05,5.52-.07,8.23-2.44,3.11-3.29,6.63-2.93,10.52.34,3.66-.88,6.36-4.51,7.86-3.59,1.49-6.16,4.15-7.67,7.78-1.4,3.35-3.96,4.78-7.5,4.33-3.75-.47-7.16.35-10.16,2.59-3.17,2.37-6.3,2.49-9.49.15-3.03-2.22-6.41-3.27-10.13-2.77-3.84.52-6.44-1.05-7.91-4.43-1.52-3.48-3.95-5.99-7.37-7.48-3.71-1.61-5.16-4.33-4.71-7.23ZM86.84,307.46c.15-14.89-12.25-27.51-27.22-27.72-14.98-.2-28.02,12.23-28.15,26.83-.13,15.72,11.89,28.33,27.27,28.6,15.38.27,27.94-12.12,28.09-27.71Z"/>
            <path class="cls-2" d="M95.59,352.09c-2.92.85-5.21-.2-7.41-.82-2.9-.8-4.11.16-4.79,2.84-.57,2.24-1.46,4.4-2.53,7.54-2.91-5.03-5.36-9.22-7.77-13.44-.61-1.06-.62-2.42.92-2.13,6.8,1.3,10.59-2.26,13.06-8.89,3.15,5.51,5.79,10.12,8.52,14.89Z"/>
            <path class="cls-2" d="M37.9,360.72c-1.68-1.27-1.73-2.7-2.15-3.9-2.17-6.22-2.14-6.23-8.58-4.86-1.29.27-2.56.78-4.23.22,1.88-4.58,4.52-8.67,7.06-12.81,1.39-2.26,2.4-.45,2.75.63,1.7,5.17,5.25,6.83,10.4,6.09,1.23-.18,3.23-.15,2.06,2.02-2.27,4.25-4.82,8.35-7.31,12.62Z"/>
            <path class="cls-2" d="M82.35,307.88c-.09,12.45-10.64,22.81-23.09,22.68-13.28-.14-23.26-10.3-23.09-23.51.16-12.58,10.49-22.78,23.02-22.75,12.94.03,23.25,10.53,23.16,23.58Z"/>
          </g>
        </g>
      </g>
    </g>
  </g>
</svg>