<?xml version="1.0" encoding="UTF-8"?>
<svg id="Layer_2" xmlns="http://www.w3.org/2000/svg" viewBox="0 0 619.8 619.8">
  <defs>
    <style>
      .cls-1 {
        fill: #324a76;
      }

      .cls-2 {
        fill: #fff;
      }
    </style>
  </defs>
  <g id="Layer_1-2" data-name="Layer_1">
    <g>
      <circle class="cls-2" cx="313.22" cy="308.08" r="235"/>
      <g>
        <path class="cls-1" d="M309.9,0C138.75,0,0,138.75,0,309.9s138.75,309.9,309.9,309.9,309.9-138.75,309.9-309.9S481.05,0,309.9,0ZM309.9,503.55c-106.95,0-193.65-86.7-193.65-193.65s86.7-193.65,193.65-193.65,193.65,86.7,193.65,193.65-86.7,193.65-193.65,193.65Z"/>
        <g>
          <path class="cls-2" d="M72.33,241.41l-1.42,5.05,12.01,3.39-2.3,8.15-33.46-9.44,3.72-13.2c2.31-8.2,8.09-10.99,14.24-9.26,5.53,1.56,9.62,6.78,7.21,15.31ZM65.68,240.2c.91-3.24-.32-5.08-2.89-5.81s-4.58.2-5.5,3.44l-1.25,4.43,8.39,2.37,1.25-4.43Z"/>
          <path class="cls-2" d="M91.95,207.08l-5.22,11.88,4.78,4.38-3.57,8.11-26.76-25.51,3.95-8.98,36.89,2.49-3.61,8.21-6.46-.57ZM71.7,205.26l9.94,9.02,3.45-7.84-13.39-1.18Z"/>
          <path class="cls-2" d="M72.58,181.14l5.09-8.15,15.92,2-8.81-13.38,5.04-8.07,13.37,22.54,9.75,6.08-4.49,7.18-9.75-6.08-26.12-2.12Z"/>
          <path class="cls-2" d="M106.69,132.93l21.27,18.57,7.3-8.36,4.92,4.3-12.87,14.74-26.19-22.87,5.57-6.38Z"/>
          <path class="cls-2" d="M154.15,126.08l-9.67,8.66,2.55,5.96-6.6,5.91-13.82-34.29,7.31-6.54,32.56,17.51-6.68,5.98-5.65-3.19ZM136.47,116.05l5.32,12.32,6.38-5.71-11.7-6.61Z"/>
          <path class="cls-2" d="M147.83,94.19l22.26-15.08,3.8,5.62-7.63,5.17,15.69,23.17-7.01,4.75-15.69-23.17-7.63,5.17-3.8-5.62Z"/>
          <path class="cls-2" d="M198.48,71.7l-11.38,5.92,3.25,6.24,10.06-5.24,3.02,5.8-10.06,5.24,3.52,6.77,11.38-5.92,3.13,6.02-18.89,9.84-16.06-30.84,18.89-9.84,3.13,6.02Z"/>
          <path class="cls-2" d="M216.6,57.03c7.98-2.98,13.69.12,15.8,5.78,1.53,4.08.74,8.76-3.71,12.12l12.34,10.08-8.95,3.35-11.37-9.76-1.9.71,4.6,12.29-7.93,2.97-12.18-32.56,13.31-4.98ZM218.6,63.79l-4.92,1.84,3.02,8.07,4.92-1.84c2.97-1.11,3.79-3.16,2.83-5.71-.9-2.41-2.88-3.47-5.85-2.36Z"/>
          <path class="cls-2" d="M247.48,46.54l8.97-1.26,8.48,24.36,2.61-25.92,9.22-1.3,9.41,24.23,1.48-25.76,9.02-1.27-4.13,35.69-10.15,1.43-8.68-21.88-2.5,23.46-10.15,1.43-13.57-33.2Z"/>
          <path class="cls-2" d="M304.17,40.51l8.47-.14.57,34.76-8.47.14-.57-34.76Z"/>
          <path class="cls-2" d="M319.76,40.28l26.8,2.29-.58,6.76-9.18-.79-2.39,27.88-8.44-.72,2.39-27.88-9.18-.79.58-6.76Z"/>
          <path class="cls-2" d="M370.97,68.35l-12.85-2.88-3.13,13.97-8.26-1.85,7.59-33.92,8.26,1.85-2.97,13.29,12.85,2.88,2.97-13.29,8.26,1.85-7.59,33.92-8.26-1.85,3.13-13.97Z"/>
          <path class="cls-2" d="M404.96,56.93l9.08,4.19-1.24,25.94,18.86-17.8,9.04,4.17-14.58,31.56-7.69-3.55,8.74-18.92-15.8,15.67-6.2-2.87,1.66-22.25-8.76,18.97-7.69-3.55,14.58-31.56Z"/>
          <path class="cls-2" d="M443.37,117.24c-8.1-5.62-10.48-16.25-4.53-24.84,5.96-8.59,16.73-10.04,24.83-4.42,8.14,5.65,10.43,16.16,4.48,24.74-5.96,8.59-16.67,10.13-24.77,4.52ZM447.78,110.9c4.56,3.16,9.82,1.93,13.29-3.08,3.53-5.09,2.79-10.36-1.77-13.52-4.64-3.22-9.8-2.04-13.33,3.05-3.47,5.01-2.83,10.33,1.81,13.55Z"/>
          <path class="cls-2" d="M507.25,125.76l-24.02,25.14-6.12-5.85,4.57-25.29-14.81,15.51-6.12-5.85,24.02-25.14,6.12,5.85-4.64,25.36,14.88-15.58,6.12,5.85Z"/>
          <path class="cls-2" d="M512.46,131.69l16.75,21.04-5.31,4.22-5.74-7.21-21.89,17.42-5.27-6.62,21.89-17.42-5.74-7.21,5.31-4.22Z"/>
          <path class="cls-2" d="M527.28,188.17l-6.75-11.31-12.29,7.33-4.34-7.27,29.85-17.81,4.34,7.27-11.69,6.98,6.75,11.31,11.7-6.98,4.34,7.27-29.85,17.81-4.34-7.27,12.29-7.33Z"/>
          <path class="cls-2" d="M556.54,201.22l-25.84,11.37,4.47,10.15-5.98,2.63-7.88-17.91,31.82-14,3.41,7.75Z"/>
          <path class="cls-2" d="M562.87,215.46l2.81,9.19-11.96,10.7,15.88,2.14,2.78,9.09-25.78-4.7-10.99,3.36-2.48-8.1,10.99-3.36,18.74-18.32Z"/>
        </g>
        <g>
          <path class="cls-2" d="M547.46,378.42l1.43-5.05-12.01-3.39,2.3-8.15,33.46,9.44-3.72,13.2c-2.31,8.2-8.09,10.99-14.24,9.26-5.53-1.56-9.62-6.78-7.21-15.31ZM554.12,379.63c-.91,3.24.32,5.08,2.89,5.81s4.58-.2,5.5-3.44l1.25-4.43-8.39-2.37-1.25,4.43Z"/>
          <path class="cls-2" d="M527.85,412.72l5.23-11.88-4.78-4.38,3.57-8.11,26.76,25.51-3.95,8.98-36.89-2.49,3.61-8.21,6.46.57ZM548.1,414.54l-9.94-9.02-3.45,7.84,13.39,1.18Z"/>
          <path class="cls-2" d="M547.22,438.66l-5.09,8.15-15.92-2,8.81,13.38-5.04,8.07-13.37-22.54-9.75-6.08,4.49-7.18,9.75,6.08,26.12,2.12Z"/>
          <path class="cls-2" d="M513.11,486.87l-21.27-18.57-7.3,8.36-4.92-4.3,12.87-14.74,26.19,22.87-5.57,6.38Z"/>
          <path class="cls-2" d="M465.65,493.73l9.67-8.66-2.55-5.96,6.6-5.91,13.82,34.29-7.31,6.54-32.56-17.51,6.68-5.98,5.65,3.19ZM483.33,503.75l-5.32-12.32-6.38,5.71,11.7,6.61Z"/>
          <path class="cls-2" d="M471.97,525.61l-22.26,15.08-3.8-5.62,7.63-5.17-15.69-23.17,7.01-4.75,15.69,23.17,7.63-5.17,3.8,5.62Z"/>
          <path class="cls-2" d="M421.32,548.1l11.38-5.92-3.25-6.24-10.06,5.24-3.02-5.8,10.06-5.24-3.52-6.77-11.38,5.92-3.13-6.02,18.89-9.84,16.06,30.84-18.89,9.84-3.13-6.02Z"/>
          <path class="cls-2" d="M403.2,562.77c-7.98,2.98-13.69-.12-15.8-5.78-1.53-4.08-.74-8.76,3.71-12.12l-12.34-10.08,8.95-3.35,11.37,9.76,1.9-.71-4.6-12.29,7.93-2.97,12.18,32.56-13.31,4.98ZM401.2,556.01l4.92-1.84-3.02-8.07-4.92,1.84c-2.97,1.11-3.79,3.16-2.83,5.71.9,2.41,2.88,3.47,5.85,2.36Z"/>
          <path class="cls-2" d="M372.32,573.27l-8.97,1.26-8.48-24.36-2.61,25.92-9.22,1.3-9.41-24.23-1.48,25.76-9.02,1.27,4.13-35.69,10.15-1.43,8.68,21.88,2.5-23.46,10.15-1.43,13.57,33.2Z"/>
          <path class="cls-2" d="M315.63,579.29l-8.47.14-.57-34.76,8.47-.14.57,34.76Z"/>
          <path class="cls-2" d="M300.04,579.53l-26.79-2.29.58-6.76,9.18.79,2.39-27.88,8.44.72-2.39,27.88,9.18.79-.58,6.76Z"/>
          <path class="cls-2" d="M248.83,551.46l12.85,2.88,3.13-13.97,8.26,1.85-7.59,33.92-8.26-1.85,2.98-13.29-12.85-2.88-2.98,13.29-8.26-1.85,7.59-33.92,8.26,1.85-3.13,13.97Z"/>
          <path class="cls-2" d="M214.84,562.88l-9.08-4.19,1.24-25.94-18.86,17.8-9.04-4.17,14.58-31.56,7.69,3.55-8.74,18.92,15.8-15.67,6.2,2.87-1.66,22.25,8.76-18.97,7.69,3.55-14.58,31.56Z"/>
          <path class="cls-2" d="M176.43,502.56c8.1,5.62,10.49,16.25,4.53,24.84-5.96,8.59-16.73,10.04-24.83,4.42-8.14-5.65-10.43-16.16-4.48-24.74s16.67-10.13,24.77-4.52ZM172.03,508.91c-4.56-3.16-9.82-1.93-13.29,3.08-3.53,5.09-2.79,10.36,1.77,13.52,4.64,3.22,9.8,2.04,13.33-3.05,3.47-5.01,2.83-10.33-1.81-13.55Z"/>
          <path class="cls-2" d="M112.55,494.04l24.02-25.14,6.12,5.85-4.57,25.29,14.81-15.51,6.12,5.85-24.02,25.14-6.12-5.85,4.64-25.36-14.88,15.58-6.12-5.85Z"/>
          <path class="cls-2" d="M107.34,488.11l-16.75-21.04,5.31-4.22,5.74,7.21,21.89-17.42,5.27,6.62-21.89,17.42,5.74,7.21-5.31,4.22Z"/>
          <path class="cls-2" d="M92.52,431.63l6.75,11.31,12.29-7.33,4.34,7.27-29.85,17.81-4.34-7.27,11.7-6.98-6.75-11.31-11.69,6.98-4.34-7.27,29.85-17.81,4.34,7.27-12.29,7.33Z"/>
          <path class="cls-2" d="M63.26,418.58l25.84-11.37-4.47-10.15,5.98-2.63,7.88,17.91-31.83,14-3.41-7.75Z"/>
          <path class="cls-2" d="M56.93,404.34l-2.81-9.19,11.96-10.7-15.88-2.14-2.78-9.09,25.78,4.7,10.99-3.36,2.48,8.1-10.99,3.36-18.74,18.32Z"/>
        </g>
        <g>
          <path class="cls-1" d="M190.71,280.24h-4.84v12.37h-12.21v-38.93h17.05c9.79,0,14.79,5.5,14.79,13.36,0,7.2-5,13.2-14.79,13.2ZM189.34,270.62c2.75,0,3.79-1.43,3.79-3.57s-1.04-3.58-3.79-3.58h-3.46v7.15h3.46Z"/>
          <path class="cls-1" d="M234.33,286.73h-12.98l-1.92,5.88h-12.81l14.24-38.93h14.08l14.19,38.93h-12.87l-1.92-5.88ZM227.84,266.71l-3.52,10.83h7.04l-3.52-10.83Z"/>
          <path class="cls-1" d="M249.12,253.68h13.97l6.21,13.8,6.21-13.8h13.75l-13.97,27.11v11.82h-12.21v-11.82l-13.97-27.11Z"/>
          <path class="cls-1" d="M292.02,253.68h14.96l8.58,23.37,8.36-23.37h14.9v38.93h-12.15v-19.41l-5.99,19.41h-10.45l-5.99-19.41v19.41h-12.21v-38.93Z"/>
          <path class="cls-1" d="M370.28,263.41h-13.75v4.78h12.1v9.18h-12.1v5.5h13.75v9.73h-25.96v-38.93h25.96v9.73Z"/>
          <path class="cls-1" d="M412.25,253.68v38.93h-12.21l-12.92-19.58v19.58h-12.21v-38.93h12.21l12.92,19.91v-19.91h12.21Z"/>
          <path class="cls-1" d="M415.55,253.68h32.78v9.68h-10.34v29.26h-12.21v-29.26h-10.23v-9.68Z"/>
          <path class="cls-1" d="M170.98,357.74h-9.36v23.93h-23.61v-75.31h32.97c18.93,0,28.61,10.64,28.61,25.85,0,13.93-9.68,25.53-28.61,25.53ZM168.32,339.12c5.32,0,7.34-2.77,7.34-6.91s-2.02-6.91-7.34-6.91h-6.7v13.83h6.7Z"/>
          <path class="cls-1" d="M230.65,306.36v57.44h22.76v17.87h-46.38v-75.31h23.61Z"/>
          <path class="cls-1" d="M309.15,370.29h-25.1l-3.72,11.38h-24.78l27.55-75.31h27.23l27.44,75.31h-24.89l-3.72-11.38ZM296.6,331.57l-6.81,20.95h13.62l-6.81-20.95Z"/>
          <path class="cls-1" d="M415.31,306.36v75.31h-23.61l-25-37.87v37.87h-23.61v-75.31h23.61l25,38.51v-38.51h23.61Z"/>
          <path class="cls-1" d="M455.41,382.41c-17.23,0-30.74-7.98-31.8-24.89h25.1c.42,5.53,3.4,6.49,5.74,6.49s4.57-1.06,4.57-3.72c-.11-10.21-35.63-6.49-35.21-32.23,0-15.1,12.76-22.98,28.83-22.98,18.19,0,29.89,8.72,30.53,24.36h-25.42c-.21-4.57-2.66-5.96-5.21-5.96-1.91,0-3.4,1.28-3.4,3.83,0,9.47,35,7.87,35,31.06,0,13.83-10.53,24.04-28.72,24.04Z"/>
        </g>
        <g>
          <path class="cls-2" d="M558.33,335.68c-10.94-1.03-19.08-6.58-19.74-17.15h17.45c.15,2.22,1.03,3.47,2.29,4.14v-7.25c-8.13-2.22-19.89-4.73-19.89-17.37,0-9.98,9.09-15.45,19.89-15.9v-5.99h4.58v5.99c11.61.81,18.85,6.58,19.52,16.86h-17.67c-.22-2-.89-3.18-1.85-3.77v7.17c8.06,2.59,20.41,5.03,20.41,17.45,0,8.72-7.25,15.67-20.41,15.97v5.91h-4.58v-6.06ZM558.33,300.57v-5.91c-1.48.3-2.29,1.18-2.29,2.66s.89,2.44,2.29,3.25ZM562.91,316.98v6.36c1.7-.37,2.88-1.33,2.88-3.11,0-1.48-1.11-2.44-2.88-3.25Z"/>
          <path class="cls-2" d="M56.37,335.68c-10.94-1.03-19.08-6.58-19.74-17.15h17.45c.15,2.22,1.03,3.47,2.29,4.14v-7.25c-8.13-2.22-19.89-4.73-19.89-17.37,0-9.98,9.09-15.45,19.89-15.9v-5.99h4.58v5.99c11.61.81,18.85,6.58,19.52,16.86h-17.67c-.22-2-.89-3.18-1.85-3.77v7.17c8.06,2.59,20.41,5.03,20.41,17.45,0,8.72-7.25,15.67-20.41,15.97v5.91h-4.58v-6.06ZM56.37,300.57v-5.91c-1.48.3-2.29,1.18-2.29,2.66s.89,2.44,2.29,3.25ZM60.95,316.98v6.36c1.7-.37,2.88-1.33,2.88-3.11,0-1.48-1.11-2.44-2.88-3.25Z"/>
        </g>
      </g>
    </g>
  </g>
</svg>