<?xml version="1.0" encoding="UTF-8"?>
<svg id="Layer_2" data-name="Layer 2" xmlns="http://www.w3.org/2000/svg" viewBox="0 0 619.8 619.8">
  <defs>
    <style>
      .cls-1 {
        fill: #1d4978;
      }

      .cls-1, .cls-2 {
        stroke-width: 0px;
      }

      .cls-2 {
        fill: #fff;
      }
    </style>
  </defs>
  <g id="Layer_1-2" data-name="Layer 1">
    <g>
      <g>
        <path class="cls-1" d="m309.9,0C138.75,0,0,138.75,0,309.9s138.75,309.9,309.9,309.9,309.9-138.75,309.9-309.9S481.05,0,309.9,0Zm0,503.55c-106.95,0-193.65-86.7-193.65-193.65s86.7-193.65,193.65-193.65,193.65,86.7,193.65,193.65-86.7,193.65-193.65,193.65Z"/>
        <g>
          <path class="cls-2" d="m82.58,252.71c-1.81,7.25-6.82,12.03-13.7,10.57l2.18-8.75c2.65.41,4.31-.92,4.88-3.22.6-2.4-.22-4.24-2.19-4.73-6.25-1.55-7.08,16.15-19.02,13.07-6.39-1.59-8.64-7.71-6.88-14.78,1.83-7.35,6.71-11.39,13.24-10.12l-2.21,8.89c-2.2-.39-3.88.82-4.48,3.02-.54,1.96.1,3.7,2.21,4.23,5.86,1.46,7.37-15.87,18.66-13.06,5.67,1.41,9.28,7,7.32,14.88Z"/>
          <path class="cls-2" d="m88.81,214.01l-4.85,12.04,4.92,4.22-3.31,8.22-27.56-24.65,3.66-9.1,36.95,1.31-3.35,8.32-6.47-.36Zm-20.29-1.17l10.22,8.7,3.2-7.95-13.42-.76Z"/>
          <path class="cls-2" d="m69.04,188.22l13.32-23.36,5.89,3.36-4.56,8,24.3,13.86-4.2,7.36-24.3-13.86-4.56,8-5.89-3.36Z"/>
          <path class="cls-2" d="m86.27,159.45l4.84-6.95,28.53,19.88-4.84,6.95-28.53-19.88Z"/>
          <path class="cls-2" d="m130.99,158.52c-4.82,5.71-11.43,7.78-16.96,3.44l5.81-6.89c2.2,1.54,4.27,1.08,5.81-.74,1.6-1.89,1.67-3.9.12-5.21-4.92-4.15-13.48,11.37-22.84,3.34-5.03-4.25-4.35-10.74.34-16.3,4.89-5.79,11.05-7.26,16.35-3.25l-5.91,7c-1.8-1.32-3.84-.98-5.35.73-1.35,1.52-1.54,3.36.12,4.77,4.62,3.9,13.62-10.99,22.51-3.49,4.47,3.77,5.24,10.38,0,16.59Z"/>
          <path class="cls-2" d="m118.19,120.25l16.53-15.46,4.63,4.95-10.34,9.67,5.01,5.35,7.74-7.24,4.5,4.81-7.74,7.24,9.61,10.27-6.18,5.78-23.75-25.39Z"/>
          <path class="cls-2" d="m174.99,110.26l-10.55,7.56,1.89,6.2-7.21,5.17-10.03-35.59,7.97-5.71,30.48,20.93-7.29,5.22-5.27-3.78Zm-16.5-11.88l3.95,12.83,6.96-4.99-10.92-7.83Z"/>
          <path class="cls-2" d="m188.22,68.97c7.38-3.74,15.05-2.41,20.22,3.41l-8.3,4.21c-2.62-2-5.64-2.14-8.51-.68-4.64,2.35-6.07,7.41-3.29,12.89,2.78,5.48,7.71,7.31,12.34,4.96,2.87-1.46,4.54-3.97,4.48-7.27l8.3-4.21c1.64,7.61-1.84,14.54-9.22,18.28-9.14,4.64-18.89,1.41-23.59-7.86-4.7-9.28-1.57-19.08,7.57-23.72Z"/>
          <path class="cls-2" d="m209.66,59.34l25.44-8.73,2.2,6.42-8.71,2.99,9.09,26.47-8.01,2.75-9.09-26.47-8.71,2.99-2.2-6.42Z"/>
          <path class="cls-2" d="m241.6,49.14l8.23-2.01,8.26,33.77-8.23,2.01-8.26-33.77Z"/>
          <path class="cls-2" d="m279.46,77.51c-9.77,1.27-18.68-5.02-20.03-15.38-1.35-10.36,5.67-18.67,15.44-19.94,9.82-1.28,18.58,4.98,19.92,15.34,1.35,10.36-5.56,18.7-15.34,19.97Zm-.99-7.66c5.5-.71,8.57-5.16,7.79-11.2-.8-6.14-4.89-9.55-10.39-8.84-5.6.73-8.63,5.07-7.83,11.21.78,6.04,4.84,9.56,10.44,8.83Z"/>
          <path class="cls-2" d="m332.49,40.94l-.9,34.75-8.46-.22-13.6-21.8-.56,21.43-8.46-.22.9-34.75,8.46.22,13.6,21.9.56-21.53,8.46.22Z"/>
          <path class="cls-2" d="m383.45,61.49l-9.13-2.07c-.74-2.55-2.79-4.29-5.88-4.99-5.31-1.2-9.69,1.76-11.03,7.66-1.42,6.28,1.32,10.76,7.26,12.1,4.1.93,7.45-.6,9.57-4.13l-10.48-2.37,1.38-6.08,17.97,4.07-1.74,7.68c-3.06,5.45-10.04,10.01-18.97,7.99-10.14-2.3-15.68-11.02-13.38-21.16s11.02-15.68,21.16-13.38c8.11,1.84,13.06,7.33,13.28,14.68Z"/>
          <path class="cls-2" d="m394.61,53.62l7.89,3.09-7.59,19.37c-1.5,3.83-.48,6.78,3.26,8.25,3.73,1.46,6.58.03,8.08-3.8l7.59-19.37,7.89,3.09-7.57,19.32c-3.5,8.95-11.51,10.92-18.98,7.99-7.52-2.94-11.64-9.67-8.13-18.61l7.57-19.32Z"/>
          <path class="cls-2" d="m435.15,104.06l-11.25-6.46-4.86,4.29-7.69-4.41,28.21-23.89,8.5,4.88-6.39,36.41-7.77-4.46,1.25-6.36Zm3.96-19.94l-10.03,8.92,7.43,4.26,2.6-13.18Z"/>
          <path class="cls-2" d="m476.31,97.94c6.72,5.24,7.06,11.72,3.35,16.49-2.68,3.44-7.08,5.22-12.27,3.18l-2.13,15.79-7.54-5.88,2.36-14.8-1.6-1.25-8.07,10.35-6.68-5.21,21.37-27.42,11.21,8.74Zm-4.71,5.24l-4.14-3.23-5.3,6.8,4.14,3.23c2.5,1.95,4.68,1.57,6.35-.58,1.58-2.03,1.45-4.27-1.05-6.22Z"/>
          <path class="cls-2" d="m487.63,147.24l-9.02-9.33-5.86,2.77-6.16-6.37,33.74-15.11,6.81,7.05-16.26,33.2-6.23-6.45,2.97-5.76Zm9.35-18.05l-12.11,5.78,5.95,6.16,6.16-11.94Z"/>
          <path class="cls-2" d="m538.79,166.8l-28.35,20.12-4.9-6.91,9.29-23.96-17.49,12.41-4.9-6.91,28.35-20.12,4.9,6.91-9.37,24.02,17.57-12.47,4.9,6.91Z"/>
          <path class="cls-2" d="m542.78,173.6l12.43,23.85-6.02,3.14-4.26-8.17-24.81,12.93-3.91-7.51,24.81-12.93-4.26-8.17,6.02-3.14Z"/>
          <path class="cls-2" d="m559.31,226.54l-4.57-11.98-6.57,2.51,4.04,10.59-6.11,2.33-4.04-10.59-7.12,2.72,4.57,11.98-6.34,2.42-7.59-19.89,32.48-12.39,7.59,19.89-6.34,2.42Z"/>
          <path class="cls-2" d="m566.96,254.5l-3.22-12.42-6.81,1.76,2.84,10.98-6.33,1.64-2.84-10.98-7.38,1.91,3.22,12.42-6.57,1.7-5.34-20.62,33.66-8.72,5.34,20.62-6.57,1.7Z"/>
        </g>
        <g>
          <path class="cls-2" d="m537.22,367.1c1.81-7.25,6.82-12.03,13.7-10.57l-2.18,8.75c-2.65-.41-4.31.92-4.88,3.22-.6,2.4.22,4.24,2.19,4.73,6.25,1.55,7.08-16.15,19.02-13.07,6.39,1.59,8.64,7.71,6.88,14.78-1.83,7.35-6.71,11.39-13.24,10.12l2.21-8.89c2.2.39,3.88-.82,4.48-3.02.54-1.96-.1-3.7-2.21-4.23-5.86-1.46-7.37,15.87-18.66,13.06-5.67-1.41-9.28-7-7.32-14.88Z"/>
          <path class="cls-2" d="m530.99,405.79l4.85-12.04-4.92-4.22,3.31-8.22,27.56,24.65-3.66,9.1-36.95-1.31,3.35-8.32,6.47.36Zm20.29,1.17l-10.22-8.7-3.2,7.95,13.42.76Z"/>
          <path class="cls-2" d="m550.76,431.58l-13.32,23.36-5.89-3.36,4.56-8-24.3-13.86,4.2-7.36,24.3,13.86,4.56-8,5.89,3.36Z"/>
          <path class="cls-2" d="m533.53,460.35l-4.84,6.95-28.53-19.88,4.84-6.95,28.53,19.88Z"/>
          <path class="cls-2" d="m488.81,461.28c4.82-5.71,11.43-7.78,16.96-3.44l-5.81,6.89c-2.2-1.54-4.27-1.08-5.81.74-1.6,1.89-1.67,3.9-.12,5.21,4.92,4.15,13.48-11.37,22.84-3.34,5.03,4.25,4.35,10.74-.34,16.3-4.89,5.79-11.05,7.26-16.35,3.25l5.91-7c1.8,1.32,3.84.98,5.35-.73,1.35-1.52,1.54-3.36-.12-4.77-4.62-3.9-13.62,10.99-22.51,3.49-4.47-3.77-5.24-10.38,0-16.59Z"/>
          <path class="cls-2" d="m501.61,499.55l-16.53,15.46-4.63-4.95,10.34-9.67-5.01-5.35-7.74,7.24-4.5-4.81,7.74-7.24-9.61-10.27,6.18-5.78,23.75,25.39Z"/>
          <path class="cls-2" d="m444.81,509.54l10.55-7.56-1.89-6.2,7.21-5.17,10.03,35.59-7.97,5.71-30.48-20.93,7.29-5.22,5.27,3.78Zm16.5,11.88l-3.95-12.83-6.96,4.99,10.92,7.83Z"/>
          <path class="cls-2" d="m431.58,550.84c-7.38,3.74-15.05,2.41-20.22-3.41l8.3-4.21c2.62,2,5.64,2.14,8.51.68,4.64-2.35,6.07-7.41,3.29-12.89-2.78-5.48-7.71-7.31-12.34-4.96-2.87,1.46-4.54,3.97-4.48,7.27l-8.3,4.21c-1.64-7.61,1.84-14.54,9.22-18.28,9.14-4.64,18.89-1.41,23.59,7.86,4.7,9.28,1.57,19.08-7.57,23.72Z"/>
          <path class="cls-2" d="m410.14,560.46l-25.44,8.73-2.2-6.42,8.71-2.99-9.09-26.47,8.01-2.75,9.09,26.47,8.71-2.99,2.2,6.42Z"/>
          <path class="cls-2" d="m378.2,570.67l-8.23,2.01-8.26-33.77,8.23-2.01,8.26,33.77Z"/>
          <path class="cls-2" d="m340.34,542.29c9.77-1.27,18.68,5.02,20.03,15.38,1.35,10.36-5.67,18.67-15.44,19.94-9.82,1.28-18.58-4.98-19.92-15.34-1.35-10.36,5.56-18.7,15.34-19.97Zm.99,7.66c-5.5.71-8.57,5.16-7.79,11.2.8,6.14,4.89,9.55,10.39,8.84,5.6-.73,8.63-5.07,7.83-11.21-.78-6.04-4.84-9.56-10.44-8.83Z"/>
          <path class="cls-2" d="m287.31,578.87l.9-34.75,8.46.22,13.6,21.8.56-21.43,8.46.22-.9,34.75-8.46-.22-13.6-21.9-.56,21.53-8.46-.22Z"/>
          <path class="cls-2" d="m236.35,558.31l9.13,2.07c.74,2.55,2.79,4.29,5.88,4.99,5.31,1.2,9.69-1.76,11.03-7.66,1.42-6.28-1.32-10.76-7.26-12.1-4.1-.93-7.45.6-9.57,4.13l10.48,2.37-1.38,6.08-17.97-4.07,1.74-7.68c3.06-5.45,10.04-10.01,18.97-7.99,10.14,2.3,15.68,11.02,13.38,21.16s-11.02,15.68-21.16,13.38c-8.11-1.84-13.06-7.33-13.28-14.69Z"/>
          <path class="cls-2" d="m225.19,566.19l-7.89-3.09,7.59-19.37c1.5-3.83.48-6.78-3.26-8.25-3.73-1.46-6.58-.03-8.08,3.8l-7.59,19.37-7.89-3.09,7.57-19.32c3.5-8.95,11.51-10.92,18.98-7.99,7.52,2.94,11.64,9.67,8.13,18.61l-7.57,19.32Z"/>
          <path class="cls-2" d="m184.65,515.75l11.25,6.46,4.86-4.29,7.69,4.41-28.21,23.89-8.5-4.88,6.39-36.41,7.77,4.46-1.25,6.36Zm-3.96,19.94l10.03-8.92-7.43-4.26-2.6,13.18Z"/>
          <path class="cls-2" d="m143.5,521.86c-6.72-5.24-7.06-11.72-3.35-16.49,2.68-3.44,7.08-5.22,12.27-3.18l2.13-15.79,7.54,5.88-2.36,14.8,1.6,1.25,8.07-10.35,6.68,5.21-21.37,27.42-11.21-8.74Zm4.71-5.24l4.14,3.23,5.3-6.8-4.14-3.23c-2.5-1.95-4.68-1.57-6.35.58-1.58,2.03-1.45,4.27,1.05,6.22Z"/>
          <path class="cls-2" d="m132.17,472.56l9.02,9.33,5.86-2.77,6.16,6.38-33.74,15.11-6.81-7.05,16.26-33.2,6.23,6.45-2.97,5.76Zm-9.35,18.05l12.11-5.78-5.95-6.16-6.16,11.94Z"/>
          <path class="cls-2" d="m81.01,453l28.35-20.12,4.9,6.91-9.29,23.96,17.49-12.41,4.9,6.91-28.35,20.12-4.9-6.91,9.37-24.02-17.57,12.47-4.9-6.91Z"/>
          <path class="cls-2" d="m77.02,446.2l-12.43-23.85,6.02-3.14,4.26,8.17,24.81-12.93,3.91,7.51-24.81,12.93,4.26,8.17-6.02,3.14Z"/>
          <path class="cls-2" d="m60.49,393.27l4.57,11.98,6.57-2.51-4.04-10.59,6.11-2.33,4.04,10.59,7.12-2.72-4.57-11.98,6.34-2.42,7.59,19.89-32.48,12.39-7.59-19.89,6.34-2.42Z"/>
          <path class="cls-2" d="m52.84,365.31l3.22,12.42,6.81-1.76-2.84-10.98,6.33-1.64,2.84,10.98,7.38-1.91-3.22-12.42,6.57-1.7,5.34,20.62-33.66,8.72-5.34-20.62,6.57-1.7Z"/>
        </g>
        <path class="cls-2" d="m532.78,303.17h15.77s6.72-13.2,12.67-19.15c5.95-5.95,6.72-6.46,8.27-13.96,1.55-7.5,4.39-6.98,4.39-6.98,0,0,8.27,3.36,5.43,12.67-2.84,9.31-7.5,18.09-7.5,18.09,0,0,25.78-.6,28.69.52,2.33.89,1.89,7.37,0,8.81-1.75,1.33-4.91,2.57-4.91,2.57l2.88,1.28c1.13.5,1.84,1.65,1.77,2.88l-.15,2.93c-.06,1.27-.92,2.36-2.14,2.72l-2.63.78,1.45.78c1.13.61,1.72,1.89,1.44,3.15l-.74,3.32c-.21.96-.9,1.74-1.83,2.08l-4.98,1.79,2.76,1.07-.25,3.3c-.13,1.07-1.85,2.29-2.87,2.64-2.34.82-6.43,1.69-16.19,1.52-14.73-.26-20.94-5.43-20.94-5.43l-22.49-.26,2.07-27.12Z"/>
        <path class="cls-2" d="m27.75,313.53h15.77s6.72-13.2,12.67-19.15c5.95-5.95,6.72-6.46,8.27-13.96,1.55-7.5,4.39-6.98,4.39-6.98,0,0,8.27,3.36,5.43,12.67-2.84,9.31-7.5,18.09-7.5,18.09,0,0,25.78-.6,28.69.52,2.33.89,1.89,7.37,0,8.81-1.75,1.33-4.91,2.57-4.91,2.57l2.88,1.28c1.13.5,1.84,1.65,1.77,2.88l-.15,2.93c-.06,1.27-.92,2.36-2.14,2.72l-2.63.78,1.45.78c1.13.61,1.72,1.89,1.44,3.15l-.74,3.32c-.21.96-.9,1.74-1.83,2.08l-4.98,1.79,2.76,1.07-.25,3.3c-.13,1.07-1.85,2.29-2.87,2.64-2.34.82-6.43,1.69-16.19,1.52-14.73-.26-20.94-5.43-20.94-5.43l-22.49-.26,2.07-27.12Z"/>
      </g>
      <g>
        <path class="cls-1" d="m195.23,253.68v29.7h11.77v9.24h-23.98v-38.93h12.21Z"/>
        <path class="cls-1" d="m229.82,293c-11.05,0-20.07-8.3-20.07-20.02s9.02-19.96,20.07-19.96,19.96,8.25,19.96,19.96-8.96,20.02-19.96,20.02Zm0-11.38c4.89,0,7.59-3.46,7.59-8.63s-2.69-8.69-7.59-8.69-7.64,3.41-7.64,8.69,2.64,8.63,7.64,8.63Z"/>
        <path class="cls-1" d="m280.42,253.68h12.98l-13.09,38.93h-15.78l-13.09-38.93h12.98l8.03,26.78,7.97-26.78Z"/>
        <path class="cls-1" d="m322.11,263.41h-13.75v4.78h12.1v9.18h-12.1v5.5h13.75v9.73h-25.96v-38.93h25.96v9.73Z"/>
        <path class="cls-1" d="m333.88,253.68h32.78v9.68h-10.34v29.26h-12.21v-29.26h-10.23v-9.68Z"/>
        <path class="cls-1" d="m393.77,277.44h-11.6v15.18h-12.21v-38.93h12.21v14.02h11.6v-14.02h12.21v38.93h-12.21v-15.18Z"/>
        <path class="cls-1" d="m437.44,263.41h-13.75v4.78h12.1v9.18h-12.1v5.5h13.75v9.73h-25.96v-38.93h25.96v9.73Z"/>
        <path class="cls-1" d="m175.66,305.62c19.89,0,33.4,11.91,36.48,29.68h-24.89c-2.23-5-6.7-7.87-12.02-7.87-7.98,0-12.87,6.49-12.87,16.49s4.89,16.49,12.87,16.49c5.32,0,9.79-2.87,12.02-7.87h24.89c-3.08,17.76-16.59,29.68-36.48,29.68-23.08,0-37.23-15.85-37.23-38.29s14.15-38.29,37.23-38.29Z"/>
        <path class="cls-1" d="m244.27,306.36v57.44h22.76v17.87h-46.38v-75.31h23.61Z"/>
        <path class="cls-1" d="m322.77,370.29h-25.1l-3.72,11.38h-24.78l27.55-75.31h27.23l27.44,75.31h-24.89l-3.72-11.38Zm-12.55-38.72l-6.81,20.95h13.62l-6.81-20.95Z"/>
        <path class="cls-1" d="m386.17,382.41c-17.23,0-30.74-7.98-31.8-24.89h25.1c.43,5.53,3.4,6.49,5.74,6.49s4.57-1.06,4.57-3.72c-.11-10.21-35.63-6.49-35.21-32.23,0-15.1,12.76-22.98,28.83-22.98,18.19,0,29.89,8.72,30.53,24.36h-25.42c-.21-4.57-2.66-5.96-5.21-5.96-1.91,0-3.4,1.28-3.4,3.83,0,9.47,35,7.87,35,31.06,0,13.83-10.53,24.04-28.72,24.04Z"/>
        <path class="cls-1" d="m452.65,382.41c-17.23,0-30.74-7.98-31.8-24.89h25.1c.43,5.53,3.4,6.49,5.74,6.49s4.57-1.06,4.57-3.72c-.11-10.21-35.63-6.49-35.21-32.23,0-15.1,12.76-22.98,28.83-22.98,18.19,0,29.89,8.72,30.53,24.36h-25.42c-.21-4.57-2.66-5.96-5.21-5.96-1.91,0-3.4,1.28-3.4,3.83,0,9.47,35,7.87,35,31.06,0,13.83-10.53,24.04-28.72,24.04Z"/>
      </g>
    </g>
  </g>
</svg>