<?xml version="1.0" encoding="UTF-8"?>
<svg id="Layer_2" xmlns="http://www.w3.org/2000/svg" viewBox="0 0 619.8 619.8">
  <defs>
    <style>
      .cls-1 {
        fill: #324a76;
      }

      .cls-2 {
        fill: #fff;
      }
    </style>
  </defs>
  <g id="Layer_1-2" data-name="Layer_1">
    <g>
      <circle class="cls-2" cx="314.28" cy="284.3" r="235"/>
      <g>
        <g>
          <path class="cls-1" d="M189.75,240.47h27.5v9.68h-15.29v5.39h11v9.18h-11v14.68h-12.21v-38.93Z"/>
          <path class="cls-1" d="M233.59,240.47v29.7h11.77v9.24h-23.98v-38.93h12.21Z"/>
          <path class="cls-1" d="M275.16,250.21h-13.75v4.78h12.1v9.18h-12.1v5.5h13.75v9.73h-25.96v-38.93h25.96v9.73Z"/>
          <path class="cls-1" d="M297.44,269.29l-5.94,10.12h-13.91l12.81-20.07-13.36-18.86h14.46l6.87,9.73,5.72-9.73h13.91l-12.59,19.69,13.64,19.25h-14.46l-7.15-10.12Z"/>
          <path class="cls-1" d="M321.81,240.47h12.21v38.93h-12.21v-38.93Z"/>
          <path class="cls-1" d="M359.92,279.41h-20.4v-38.93h19.85c7.75,0,12.76,3.35,12.76,10.12,0,4.67-2.69,7.86-6.54,8.85,4.78,1.15,7.42,4.95,7.42,9.29,0,6.82-4.62,10.67-13.09,10.67ZM356.45,250.15h-4.73v5.5h4.73c2.2,0,3.25-.83,3.25-2.69s-1.04-2.8-3.25-2.8ZM357.28,264.12h-5.55v5.5h5.55c2.2,0,3.24-.77,3.24-2.69s-1.04-2.8-3.24-2.8Z"/>
          <path class="cls-1" d="M389.34,240.47v29.7h11.77v9.24h-23.98v-38.93h12.21Z"/>
          <path class="cls-1" d="M430.92,250.21h-13.75v4.78h12.1v9.18h-12.1v5.5h13.75v9.73h-25.96v-38.93h25.96v9.73Z"/>
          <path class="cls-1" d="M209.54,330.6c0,21.49-15.1,37.87-39.14,37.87h-31.38v-75.31h31.38c24.04,0,39.14,15.74,39.14,37.44ZM168.27,347.4c10.42,0,17.34-5.85,17.34-16.81s-6.91-16.81-17.34-16.81h-5.64v33.61h5.64Z"/>
          <path class="cls-1" d="M266.34,357.08h-25.1l-3.72,11.38h-24.78l27.55-75.31h27.23l27.44,75.31h-24.89l-3.72-11.38ZM253.79,318.36l-6.81,20.95h13.62l-6.81-20.95Z"/>
          <path class="cls-1" d="M296.02,293.15h63.4v18.72h-20v56.59h-23.61v-56.59h-19.79v-18.72Z"/>
          <path class="cls-1" d="M416,311.98h-26.59v9.25h23.4v17.76h-23.4v10.64h26.59v18.83h-50.21v-75.31h50.21v18.83Z"/>
          <path class="cls-1" d="M454.4,369.21c-17.23,0-30.74-7.98-31.8-24.89h25.1c.43,5.53,3.4,6.49,5.74,6.49s4.57-1.06,4.57-3.72c-.11-10.21-35.63-6.49-35.21-32.23,0-15.1,12.76-22.98,28.83-22.98,18.19,0,29.89,8.72,30.53,24.36h-25.42c-.21-4.57-2.66-5.96-5.21-5.96-1.91,0-3.4,1.28-3.4,3.83,0,9.47,35,7.87,35,31.06,0,13.83-10.53,24.04-28.72,24.04Z"/>
        </g>
        <path class="cls-1" d="M309.9,0C138.75,0,0,138.75,0,309.9s138.75,309.9,309.9,309.9,309.9-138.75,309.9-309.9S481.05,0,309.9,0ZM309.9,503.55c-106.95,0-193.65-86.7-193.65-193.65s86.7-193.65,193.65-193.65,193.65,86.7,193.65,193.65-86.7,193.65-193.65,193.65Z"/>
        <g>
          <path class="cls-2" d="M72.12,183.01c3.98-7.53,10.31-9,15.65-6.17,3.85,2.04,6.37,6.06,5.27,11.53l15.92-.65-4.47,8.45-14.98.25-.95,1.79,11.6,6.14-3.96,7.49-30.73-16.26,6.65-12.56ZM78.11,186.73l-2.46,4.64,7.62,4.03,2.46-4.64c1.48-2.8.73-4.88-1.68-6.15-2.28-1.21-4.46-.68-5.94,2.12Z"/>
          <path class="cls-2" d="M100.46,150.95l-7.33,10.53,5.77,4.02,6.48-9.31,5.37,3.74-6.48,9.31,6.26,4.36,7.33-10.53,5.57,3.88-12.17,17.48-28.54-19.87,12.17-17.48,5.57,3.88Z"/>
          <path class="cls-2" d="M134.8,154.14c-4.96,5.59-11.62,7.5-17.04,3.02l5.98-6.74c2.17,1.59,4.25,1.18,5.82-.59,1.64-1.85,1.77-3.86.25-5.21-4.82-4.27-13.76,11.03-22.92,2.77-4.93-4.37-4.09-10.84.75-16.29,5.03-5.67,11.23-6.99,16.42-2.84l-6.08,6.85c-1.77-1.37-3.82-1.07-5.37.6-1.38,1.49-1.62,3.33,0,4.77,4.52,4.01,13.89-10.65,22.59-2.93,4.37,3.88,4.98,10.51-.41,16.58Z"/>
          <path class="cls-2" d="M135.13,104.28c6.29-5.36,14.06-5.87,20.45-1.42l-7.08,6.04c-3.02-1.33-5.98-.76-8.43,1.33-3.96,3.37-4.17,8.62-.18,13.3,3.98,4.67,9.2,5.3,13.16,1.93,2.45-2.09,3.48-4.92,2.65-8.11l7.09-6.04c3.38,7.01,1.61,14.57-4.68,19.93-7.8,6.65-18.03,5.8-24.77-2.12-6.75-7.92-6-18.18,1.81-24.83Z"/>
          <path class="cls-2" d="M184.65,94.53l-11.2,6.93,7.53,12.17-7.2,4.46-18.3-29.56,7.2-4.46,7.17,11.58,11.2-6.93-7.17-11.58,7.2-4.46,18.3,29.56-7.2,4.46-7.53-12.17Z"/>
          <path class="cls-2" d="M211.85,65.89l-11.69,5.28,2.89,6.41,10.34-4.67,2.69,5.96-10.34,4.67,3.14,6.95,11.69-5.28,2.79,6.18-19.41,8.77-14.31-31.69,19.41-8.77,2.79,6.18Z"/>
          <path class="cls-2" d="M252.3,63.89c2.99,9.86-1.79,18.7-12.4,21.92l-12.46,3.78-10.08-33.27,12.46-3.78c10.62-3.22,19.48,1.45,22.48,11.35ZM237.25,78.95c6.11-1.85,8.65-6.45,6.8-12.56-1.85-6.11-6.54-8.62-12.66-6.77l-3.84,1.16,5.86,19.34,3.84-1.16Z"/>
          <path class="cls-2" d="M255.6,45.52l8.38-1.25,3.06,20.57c.6,4.07,2.96,6.12,6.93,5.53,3.97-.59,5.72-3.25,5.12-7.32l-3.06-20.57,8.38-1.25,3.05,20.52c1.41,9.5-4.55,15.19-12.49,16.37-7.98,1.19-14.9-2.59-16.31-12.09l-3.05-20.52Z"/>
          <path class="cls-2" d="M301.98,40.55l.79,28.21,11.09-.31.18,6.53-19.55.55-.97-34.75,8.46-.24Z"/>
          <path class="cls-2" d="M340.56,48.76l-12.79-.95-.52,7.01,11.31.84-.49,6.52-11.31-.84-.57,7.61,12.79.95-.5,6.77-21.24-1.58,2.58-34.67,21.24,1.58-.5,6.77Z"/>
          <path class="cls-2" d="M375.44,77.99l-12.58-3.18-3.52,5.44-8.59-2.17,20.72-30.61,9.5,2.41,3.67,36.78-8.69-2.2-.51-6.46ZM373.88,57.73l-7.25,11.29,8.3,2.1-1.05-13.39Z"/>
          <path class="cls-2" d="M429.24,67.74l-13.56,32.02-7.8-3.3-4.68-25.27-8.36,19.75-7.8-3.3,13.56-32.02,7.8,3.3,4.64,25.37,8.4-19.84,7.8,3.3Z"/>
          <path class="cls-2" d="M435.75,71.02l8.21,4.99-1.8,15.94,13.27-8.97,8.13,4.94-22.37,13.65-5.97,9.82-7.24-4.4,5.96-9.82,1.8-26.14Z"/>
          <path class="cls-2" d="M476.81,97.91l20.27,17.67-4.46,5.11-6.94-6.05-18.39,21.09-6.38-5.57,18.39-21.09-6.94-6.05,4.46-5.11Z"/>
          <path class="cls-2" d="M501.61,120.48l5.86,6.12-25.11,24.05-5.86-6.12,25.11-24.05Z"/>
          <path class="cls-2" d="M514.25,133.15l5.98,8.02-13.45,22.21,25.06-6.65,5.95,7.98-27.86,20.79-5.06-6.79,16.71-12.47-21.36,6.24-4.09-5.48,12.07-18.77-16.75,12.5-5.06-6.79,27.86-20.79Z"/>
          <path class="cls-2" d="M546.69,195.54l-6.06-11.3-6.2,3.32,5.36,9.99-5.76,3.09-5.36-9.99-6.72,3.6,6.06,11.3-5.98,3.21-10.07-18.76,30.64-16.43,10.07,18.76-5.98,3.21Z"/>
        </g>
        <g>
          <path class="cls-2" d="M547.68,436.79c-3.98,7.53-10.31,9-15.65,6.17-3.85-2.04-6.37-6.06-5.27-11.53l-15.92.65,4.47-8.45,14.98-.25.95-1.79-11.6-6.14,3.96-7.49,30.73,16.26-6.65,12.56ZM541.69,433.07l2.46-4.64-7.62-4.03-2.46,4.64c-1.48,2.8-.73,4.88,1.67,6.15,2.28,1.21,4.46.68,5.94-2.12Z"/>
          <path class="cls-2" d="M519.34,468.85l7.33-10.53-5.77-4.02-6.48,9.31-5.37-3.74,6.48-9.31-6.26-4.36-7.33,10.53-5.57-3.88,12.17-17.48,28.54,19.87-12.17,17.48-5.57-3.88Z"/>
          <path class="cls-2" d="M485,465.66c4.96-5.59,11.62-7.5,17.05-3.02l-5.98,6.74c-2.17-1.59-4.25-1.18-5.82.59-1.64,1.85-1.77,3.86-.25,5.21,4.82,4.27,13.76-11.03,22.92-2.77,4.93,4.37,4.09,10.84-.75,16.29-5.03,5.67-11.23,6.99-16.42,2.84l6.08-6.85c1.77,1.37,3.82,1.07,5.37-.6,1.38-1.49,1.63-3.33,0-4.77-4.52-4.01-13.89,10.65-22.59,2.93-4.37-3.88-4.98-10.51.41-16.58Z"/>
          <path class="cls-2" d="M484.67,515.52c-6.29,5.36-14.06,5.87-20.45,1.42l7.08-6.04c3.02,1.33,5.98.76,8.43-1.33,3.96-3.37,4.17-8.62.18-13.3-3.98-4.67-9.2-5.3-13.16-1.93-2.45,2.09-3.48,4.92-2.65,8.11l-7.09,6.04c-3.38-7.01-1.61-14.57,4.68-19.93,7.8-6.65,18.03-5.8,24.77,2.12,6.75,7.92,6,18.18-1.81,24.83Z"/>
          <path class="cls-2" d="M435.15,525.27l11.2-6.93-7.53-12.17,7.2-4.46,18.3,29.56-7.2,4.46-7.17-11.58-11.2,6.93,7.17,11.58-7.2,4.46-18.3-29.56,7.2-4.46,7.53,12.17Z"/>
          <path class="cls-2" d="M407.94,553.91l11.69-5.28-2.9-6.41-10.34,4.67-2.69-5.96,10.34-4.67-3.14-6.95-11.69,5.28-2.79-6.18,19.41-8.77,14.31,31.69-19.41,8.77-2.79-6.18Z"/>
          <path class="cls-2" d="M367.5,555.91c-2.99-9.86,1.79-18.7,12.4-21.92l12.46-3.78,10.08,33.27-12.46,3.78c-10.62,3.22-19.48-1.45-22.48-11.35ZM382.55,540.85c-6.11,1.85-8.65,6.45-6.8,12.56,1.85,6.11,6.55,8.62,12.66,6.77l3.84-1.16-5.86-19.34-3.84,1.16Z"/>
          <path class="cls-2" d="M364.19,574.28l-8.38,1.25-3.06-20.57c-.6-4.07-2.96-6.12-6.93-5.53-3.97.59-5.72,3.25-5.12,7.32l3.06,20.57-8.38,1.25-3.05-20.52c-1.41-9.5,4.55-15.19,12.49-16.37,7.98-1.19,14.9,2.59,16.31,12.09l3.05,20.52Z"/>
          <path class="cls-2" d="M317.82,579.25l-.79-28.21-11.09.31-.18-6.53,19.55-.55.97,34.75-8.46.24Z"/>
          <path class="cls-2" d="M279.22,571.04l12.79.95.52-7.01-11.31-.84.49-6.52,11.31.84.57-7.61-12.79-.95.5-6.77,21.24,1.58-2.58,34.67-21.24-1.58.5-6.77Z"/>
          <path class="cls-2" d="M244.35,541.8l12.58,3.18,3.52-5.44,8.59,2.17-20.72,30.61-9.5-2.41-3.67-36.78,8.69,2.2.51,6.46ZM245.92,562.07l7.25-11.29-8.3-2.1,1.05,13.39Z"/>
          <path class="cls-2" d="M190.56,552.06l13.56-32.02,7.8,3.3,4.68,25.27,8.36-19.75,7.8,3.3-13.56,32.02-7.8-3.3-4.64-25.37-8.4,19.84-7.8-3.3Z"/>
          <path class="cls-2" d="M184.05,548.78l-8.21-4.99,1.8-15.94-13.27,8.97-8.13-4.94,22.37-13.65,5.96-9.82,7.24,4.4-5.96,9.82-1.8,26.14Z"/>
          <path class="cls-2" d="M142.99,521.89l-20.27-17.67,4.46-5.11,6.94,6.05,18.39-21.09,6.38,5.57-18.39,21.09,6.94,6.05-4.46,5.11Z"/>
          <path class="cls-2" d="M118.19,499.32l-5.86-6.12,25.11-24.05,5.86,6.12-25.11,24.05Z"/>
          <path class="cls-2" d="M105.55,486.65l-5.98-8.02,13.45-22.21-25.06,6.65-5.95-7.98,27.86-20.79,5.06,6.79-16.71,12.47,21.36-6.24,4.09,5.48-12.07,18.77,16.75-12.5,5.06,6.79-27.86,20.79Z"/>
          <path class="cls-2" d="M73.11,424.25l6.06,11.3,6.2-3.32-5.36-9.99,5.76-3.09,5.36,9.99,6.72-3.6-6.06-11.3,5.98-3.21,10.06,18.76-30.63,16.43-10.07-18.76,5.98-3.21Z"/>
        </g>
        <g>
          <g>
            <path class="cls-2" d="M560.2,341.63s-4.51-.08-6.77-.21c-1.08-.06-2.15-.12-3.23-.18.3,5.32,4.71,9.53,10.1,9.53h.14c5.4,0,9.81-4.23,10.1-9.55-1.2.06-2.39.13-3.59.2-2.25.13-6.77.21-6.77.21Z"/>
            <path class="cls-2" d="M590.29,321.93c-1.15-.96-2.35-1.87-3.24-3.09-.64-.88-1.18-1.82-1.63-2.81-1.23-2.68-1.81-5.69-1.9-8.63,0-.03-.18-5.62-.19-5.62-.79-9.56-3.54-17.72-12.36-22.07-.74-.37-1.5-.69-2.27-.98v-1.38c0-4.59-3.73-8.32-8.32-8.32s-8.32,3.73-8.32,8.32v1.25c-.9.32-1.78.68-2.63,1.11-8.82,4.35-11.57,12.51-12.36,22.07,0,0-.19,5.59-.19,5.62-.1,2.94-.67,5.95-1.9,8.63-.45.99-.99,1.93-1.63,2.81-.89,1.22-2.08,2.14-3.24,3.09-1,.83-1.98,1.69-2.69,2.8-1.76,2.76-1.12,6.64,1.05,9.02,1.77,1.95,4.22,3.18,6.94,3.28,4.94.17,9.87.39,14.79.66,1.08.06,2.15.12,3.23.18,2.25.13,6.77.21,6.77.21,0,0,4.51-.08,6.77-.21,1.19-.07,2.39-.14,3.59-.2,4.8-.26,9.61-.47,14.43-.64,2.72-.09,5.17-1.33,6.94-3.28,2.17-2.39,2.82-6.26,1.05-9.02-.71-1.11-1.69-1.97-2.69-2.8ZM557.05,277.35c0-1.83,1.49-3.33,3.33-3.33s3.33,1.49,3.33,3.33v.11c-1.16-.17-2.33-.26-3.51-.27-1.05,0-2.1.08-3.15.22v-.06Z"/>
            <path class="cls-2" d="M531.13,296.52c.04-5.72,2.37-11.55,7.02-15.07.47-.36.71-.94.39-1.49-.27-.46-1.02-.75-1.49-.39-5.29,4.01-8.05,10.39-8.1,16.95-.01,1.4,2.17,1.4,2.18,0Z"/>
            <path class="cls-2" d="M532.66,273.05c.47-.35.71-.94.39-1.49-.27-.46-1.02-.75-1.49-.39-5.83,4.41-9.67,10.98-11.06,18.13-.41,2.13-.62,4.29-.64,6.45,0,1.4,2.17,1.4,2.18,0,.04-6.78,2.19-13.63,6.59-18.85,1.2-1.42,2.54-2.73,4.03-3.85Z"/>
            <path class="cls-2" d="M582.25,281.45c4.65,3.53,6.98,9.35,7.02,15.07.01,1.4,2.19,1.4,2.18,0-.05-6.57-2.81-12.94-8.1-16.95-.47-.36-1.22-.07-1.49.39-.33.56-.08,1.13.39,1.49Z"/>
            <path class="cls-2" d="M593.25,275.29c-1.31-1.54-2.8-2.9-4.41-4.12-.47-.36-1.22-.07-1.49.39-.33.56-.08,1.13.39,1.49,5.35,4.05,8.75,10.21,10.04,16.73.39,1.97.57,3.96.58,5.97,0,1.4,2.19,1.4,2.18,0-.05-7.41-2.46-14.78-7.29-20.46Z"/>
          </g>
          <g>
            <path class="cls-2" d="M59.6,341.63s-4.51-.08-6.77-.21c-1.08-.06-2.15-.12-3.23-.18.3,5.32,4.71,9.53,10.1,9.53h.14c5.4,0,9.81-4.23,10.1-9.55-1.2.06-2.39.13-3.59.2-2.25.13-6.77.21-6.77.21Z"/>
            <path class="cls-2" d="M89.68,321.93c-1.15-.96-2.35-1.87-3.24-3.09-.64-.88-1.18-1.82-1.63-2.81-1.23-2.68-1.81-5.69-1.9-8.63,0-.03-.18-5.62-.19-5.62-.79-9.56-3.54-17.72-12.36-22.07-.74-.37-1.5-.69-2.27-.98v-1.38c0-4.59-3.73-8.32-8.32-8.32s-8.32,3.73-8.32,8.32v1.25c-.9.32-1.78.68-2.63,1.11-8.82,4.35-11.57,12.51-12.36,22.07,0,0-.19,5.59-.19,5.62-.1,2.94-.67,5.95-1.9,8.63-.45.99-.99,1.93-1.63,2.81-.89,1.22-2.08,2.14-3.24,3.09-1,.83-1.98,1.69-2.69,2.8-1.76,2.76-1.12,6.64,1.05,9.02,1.77,1.95,4.22,3.18,6.94,3.28,4.94.17,9.87.39,14.79.66,1.08.06,2.15.12,3.23.18,2.25.13,6.77.21,6.77.21,0,0,4.51-.08,6.77-.21,1.19-.07,2.39-.14,3.59-.2,4.8-.26,9.61-.47,14.43-.64,2.72-.09,5.17-1.33,6.94-3.28,2.17-2.39,2.82-6.26,1.05-9.02-.71-1.11-1.69-1.97-2.69-2.8ZM56.45,277.35c0-1.83,1.49-3.33,3.33-3.33s3.33,1.49,3.33,3.33v.11c-1.16-.17-2.33-.26-3.51-.27-1.05,0-2.1.08-3.15.22v-.06Z"/>
            <path class="cls-2" d="M30.53,296.52c.04-5.72,2.37-11.55,7.02-15.07.47-.36.71-.94.39-1.49-.27-.46-1.02-.75-1.49-.39-5.29,4.01-8.05,10.39-8.1,16.95-.01,1.4,2.17,1.4,2.18,0Z"/>
            <path class="cls-2" d="M32.06,273.05c.47-.35.71-.94.39-1.49-.27-.46-1.02-.75-1.49-.39-5.83,4.41-9.67,10.98-11.06,18.13-.41,2.13-.62,4.29-.64,6.45,0,1.4,2.17,1.4,2.18,0,.04-6.78,2.19-13.63,6.59-18.85,1.2-1.42,2.54-2.73,4.03-3.85Z"/>
            <path class="cls-2" d="M81.65,281.45c4.65,3.53,6.98,9.35,7.02,15.07.01,1.4,2.19,1.4,2.18,0-.05-6.57-2.81-12.94-8.1-16.95-.47-.36-1.22-.07-1.49.39-.33.56-.08,1.13.39,1.49Z"/>
            <path class="cls-2" d="M92.65,275.29c-1.31-1.54-2.8-2.9-4.41-4.12-.47-.36-1.22-.07-1.49.39-.33.56-.08,1.13.39,1.49,5.35,4.05,8.75,10.21,10.04,16.73.39,1.97.57,3.96.58,5.97,0,1.4,2.19,1.4,2.18,0-.05-7.41-2.46-14.78-7.29-20.46Z"/>
          </g>
        </g>
      </g>
    </g>
  </g>
</svg>